<?xml version="1.0" encoding="UTF-8"?>
<!DOCTYPE svg PUBLIC "-//W3C//DTD SVG 1.1//EN" "http://www.w3.org/Graphics/SVG/1.1/DTD/svg11.dtd">
<!-- Creator: CorelDRAW 2021 (64-Bit) -->
<svg xmlns="http://www.w3.org/2000/svg" xml:space="preserve" width="4.76427in" height="4.4132in" version="1.1" style="shape-rendering:geometricPrecision; text-rendering:geometricPrecision; image-rendering:optimizeQuality; fill-rule:evenodd; clip-rule:evenodd"
viewBox="0 0 3336.6 3090.74"
 xmlns:xlink="http://www.w3.org/1999/xlink"
 xmlns:xodm="http://www.corel.com/coreldraw/odm/2003">
 <defs>
  <style type="text/css">
   <![CDATA[
    .fil1 {fill:#9EE771}
    .fil0 {fill:#BDE4A5}
   ]]>
  </style>
 </defs>
 <g id="Layer_x0020_1">
  <metadata id="CorelCorpID_0Corel-Layer"/>
  <path class="fil0" d="M-0 2207.97c31.11,44.18 77.13,47.52 96.52,-13.53 -47.63,-34.32 -89.36,-25.81 -96.52,13.53z"/>
  <path class="fil1" d="M3115.43 3090.74c64.67,-2.15 177.72,-35.01 221.17,-59.85 -19.88,-34.81 -128.5,-141.69 -169.13,-157.29l-52.04 217.14z"/>
  <path class="fil0" d="M1047.4 2072.66c3.6,2.74 8.82,2.16 11.16,7.7 6.13,14.47 87.65,24.75 120.58,23.48 -2.51,-61.8 -30.65,-96.1 -93.36,-72.95 -63.42,23.41 -25.61,14.48 -38.39,41.77z"/>
  <path class="fil0" d="M1881.56 1797.85c1.41,0.5 -17.64,28.94 49.74,7.41 34.96,-11.17 24.84,-14.14 39.89,-43.81 -1.3,-0.93 21.69,-46.82 -62.8,-16.91 -40.09,14.19 -27.76,23.12 -26.84,53.31z"/>
  <path class="fil0" d="M2792.32 2881.77c17.8,53.29 62.94,66.37 108.03,29.81 -14.27,-48.82 -20.9,-28.02 -64.8,-57.93l-43.23 28.12z"/>
  <path class="fil0" d="M1832.79 2505.65c12.4,29.82 -12.84,30.01 35.18,44.1 62.49,18.34 57.26,-15.22 60,-17.04 -9.55,-21.28 -2.95,-35.8 -36.82,-46.05 -64.81,-19.61 -57.39,18.23 -58.35,18.99z"/>
  <path class="fil0" d="M1218.58 2032.07c25.97,17.73 -38.13,27.99 52.8,20.64 50.01,-4.04 32.2,-13.55 44.52,-34.17 -11.6,-20.53 17.38,-30.63 -44.53,-30.15 -54.93,0.43 -44.8,16.52 -52.78,43.68z"/>
  <path class="fil0" d="M418.2 987.38c19.44,-12.98 33.98,18.72 32.7,-51.09 -1.17,-63.54 -12.69,-35.91 -32.7,-49.02 -11.47,12.58 -30.8,-26.76 -28.32,48.81 2.93,89.22 6.2,25.38 28.32,51.3z"/>
  <path class="fil0" d="M1722.61 1869.7c0.48,0.29 -6.28,35.14 57.63,13.55 39.62,-13.38 29.41,-24.07 36.47,-61.08 -81.41,-18.83 -83.09,7.47 -94.1,47.53z"/>
  <path class="fil0" d="M2393.72 658.94c0.43,-0.64 37.26,7.89 15.53,-57.77 -16.57,-50.08 -10.89,-21.49 -42.6,-35.54 -0.09,0.1 -39.56,-7.97 -18.1,56.97 13.85,41.89 19.14,25.57 45.16,36.34z"/>
  <path class="fil0" d="M2465.89 2776.27c19.15,42.36 64.6,59.29 106.14,30.21 -1.77,-29.13 -13.89,-33.37 -29.47,-50.65 -32.41,-2.1 -68.91,-8.04 -76.67,20.44z"/>
  <path class="fil0" d="M2470.9 821.56c22.1,-113.11 -24.38,-90.35 -36.59,-95.79 -0.01,0.02 -38.15,4.98 -19.74,61.64 15,46.15 11.09,24.79 56.32,34.15z"/>
  <path class="fil0" d="M2967.03 2938.64c9.29,19.34 -7.21,41.92 52.04,43.5 57.24,1.52 34.45,-6.45 42.85,-50.94 -97.43,-38.49 -86.29,0.59 -94.89,7.43z"/>
  <path class="fil0" d="M1834.46 124.21c13.84,31.48 -15.99,24.98 35.57,41.87 64.21,21.03 55.75,-11.82 56.06,-12.01 2.41,-23.54 12.34,-26.74 -22.86,-43.09 -62.22,-28.89 -58.22,4.36 -68.77,13.23z"/>
  <path class="fil0" d="M1502.76 56.48c109.15,37.31 90.8,-7.42 97.14,-13.46 -8.37,-15.09 2.08,-38.01 -45.23,-36.62 -100.34,2.96 -25.6,20.07 -51.91,50.08z"/>
  <path class="fil0" d="M1386.36 1998.76c15.59,3.97 30.74,13.51 56.92,6.28 69.98,-19.33 21.86,-1.51 40.47,-40.62 -0.29,-0.2 1.76,-39.54 -63.24,-17.77 -33.33,11.17 -31.59,13.35 -34.14,52.12z"/>
  <path class="fil0" d="M965.36 1931.25c-12.81,58.8 13.99,67.15 82.09,66.35 -4.56,-35.92 3.44,-40.53 -19.6,-62.85 -6.52,-6.31 -18.27,-10.95 -28.3,-11.88 -63.76,-5.9 -11.59,-0.09 -34.19,8.38z"/>
  <path class="fil0" d="M701.45 2140.32c13.14,9.49 7.02,24.76 55.14,18.01 45.62,-6.39 34.63,-13.34 43.03,-50.19 -38.23,-17.18 -96.96,-31.9 -98.16,32.18z"/>
  <path class="fil0" d="M1617.13 2370.35c-28.76,-80.12 -79.57,-54.68 -87.28,-37.23 -11.15,25.23 1.01,35.11 18.25,46.44 57.71,37.94 68.69,-8.99 69.03,-9.21z"/>
  <path class="fil0" d="M844.04 1807.09c-0.2,0.6 -42.79,13.01 7.52,62.61 71.27,70.26 92.16,-79.62 -7.52,-62.61z"/>
  <path class="fil0" d="M421.71 1159.66c0.51,-0.2 81.83,10.4 39.07,-71.33 -15.5,-29.64 -7.69,-8.59 -29.05,-25.98 -32.11,35.92 -22.13,-50.41 -25.23,50.44 -0.92,29.95 8.98,32.52 15.2,46.87z"/>
  <path class="fil0" d="M352.78 2180.91c24.64,17.5 -22.08,18.68 52.49,21.32 20.82,0.74 33.3,-8.08 43.5,-11.61 -10.4,-34.91 26.7,-48.42 -44.28,-49.23 -67.08,-0.77 -41.5,29.29 -51.71,39.52z"/>
  <path class="fil0" d="M499.39 1321.46c0.44,-0.73 32.84,2.92 14.3,-55.86 -13.84,-43.91 -21.47,-30.53 -60.58,-35.63 -3.73,103.73 11.7,82.21 46.27,91.49z"/>
  <path class="fil0" d="M2071.94 262.97c2.97,-74.01 -6.75,-71.53 -79.44,-78.99 2.91,70.71 3.82,72.82 79.44,78.99z"/>
  <path class="fil0" d="M2488.44 993.18c0.33,-0.44 49.35,-10.12 2.37,-97.56 -72.01,17.73 -64.87,79.51 -2.37,97.56z"/>
  <path class="fil0" d="M616.72 357.83c0.95,0.38 8.24,40.25 54.29,-8.86 33.74,-35.98 2.3,-96.78 -46.11,-45.33 -41.48,44.1 -8.68,52.69 -8.19,54.2z"/>
  <path class="fil0" d="M1989.92 2571.71c11.94,54.58 29.85,56.58 94.38,44.44 -5.81,-39.24 6.14,-39.34 -34.66,-54.4 -42.78,-15.79 -43.32,-7.39 -59.72,9.96z"/>
  <path class="fil0" d="M2310.82 2739.27c43.43,21.39 52.99,31.91 91.66,6.18 -4.92,-33.1 -3.77,-40.77 -46.7,-53.63 -38.32,-11.48 -42.18,9.55 -44.96,47.45z"/>
  <path class="fil0" d="M876.77 2113.26c19.66,13.18 -24.94,15.23 42.07,14.69 24.24,-0.2 37.75,-8.91 52.03,-14.81 -6.76,-84.87 -81.44,-60.72 -94.1,0.12z"/>
  <path class="fil0" d="M1760.4 2467.33c0.37,-0.86 29.33,-11.86 -0.16,-43.8 -19.14,-20.73 -42.04,-18.38 -75.64,-19.24 0.25,3.27 -11.1,97.84 75.79,63.04z"/>
  <path class="fil0" d="M677.39 1613.92c14.56,-36.9 -3.87,-71.71 -56.15,-79.47 -10.91,23.76 -23.48,29.26 -0.39,65.26 3.71,5.78 16.09,17.78 21.26,19.92 54.79,22.64 27.78,-1.83 35.28,-5.7z"/>
  <path class="fil0" d="M1322.98 2207.91c-14.38,-73.57 -0.14,-66.28 -86.98,-76.09 7.2,72.84 6.83,68.2 86.98,76.09z"/>
  <path class="fil0" d="M2461.38 1167.14c45.06,-16.03 58.96,-39.33 27.06,-94.77 -37.12,4.75 -30.52,-14.38 -44.78,26.83 -15.39,44.45 6.29,53.59 17.72,67.94z"/>
  <path class="fil0" d="M2210.89 373.98c-6.7,-68.42 -12.8,-73.34 -80.63,-80.4 1.36,73.35 6.1,75.24 80.63,80.4z"/>
  <path class="fil0" d="M528.58 2167.38c15.92,9.99 16.36,19.61 52.48,15.99 48.99,-4.91 34.67,-7.8 42.76,-49.11 -34.95,-15.85 -96.14,-26.46 -95.24,33.12z"/>
  <path class="fil0" d="M2390.49 1332.52c33.25,-4.17 38.41,5.93 55.16,-22.23 26.53,-44.58 -7.72,-62.28 -11.34,-67.64 -25.59,7.91 -51.7,-15.09 -43.82,89.87z"/>
  <path class="fil0" d="M2637.58 2830.4c19.07,65.23 56.79,53.81 96.84,31.9 -16.02,-42.87 20.81,-24.36 -34.77,-44.75 -42.21,-15.48 -49.21,4.18 -62.07,12.85z"/>
  <path class="fil0" d="M418.2 814.65c25.61,-6.26 22.76,25.57 40.1,-29.74 12.15,-38.73 -1.01,-46.23 -13.04,-64.97 -0.84,0.2 -82.12,-7.77 -27.06,94.71z"/>
  <path class="fil0" d="M2029.86 1707.77c49.13,25.03 95.38,2.25 87.34,-62.05 -56.74,-5.77 -76.79,14.46 -87.34,62.05z"/>
  <path class="fil0" d="M2252.57 430.59c-11.62,45.7 11.1,72.57 56.84,80.98 40.61,-60.25 -12.38,-97.07 -56.84,-80.98z"/>
  <path class="fil0" d="M719.47 1685.99c-6.04,53.63 10.45,73.62 77.79,63.47 -1.92,-17.08 0.79,-61.85 -42.73,-69.92 -73.39,-13.61 -2.24,-4.57 -35.06,6.45z"/>
  <path class="fil0" d="M2302.79 1486.98c49.91,-6.21 66.36,-31.13 61.68,-88.75 -63.56,-1.51 -84.46,40.99 -61.68,88.75z"/>
  <path class="fil0" d="M589.45 1472.97c3.87,-54.92 -5.94,-80.17 -58.15,-85.08 -25.55,46.34 -7.15,92.33 58.15,85.08z"/>
  <path class="fil0" d="M2176.94 1611.9c54.34,-4.45 77.83,-22.47 78.61,-76.87 -65.84,-7.35 -83.69,10.84 -78.61,76.87z"/>
  <path class="fil0" d="M173.12 2194.44c15.06,18.87 7.36,31.34 55.1,27.24 49.69,-4.27 35.84,-14.47 43.96,-40.78 -34.8,-23.48 -93.15,-29.57 -99.06,13.53z"/>
  <path class="fil0" d="M2152.2 2654.49l17.17 23.55c98.67,60.23 67.88,-20.74 72.85,-35.07 -73.52,-21.4 -64.82,-9.02 -90.03,11.52z"/>
  <path class="fil0" d="M524.94 492.33c44.78,16.73 55.23,-15.55 60.31,-73.67 -1.52,0.04 -68.75,-19.39 -70.74,44.88 -0.81,26.08 4.21,17.09 10.43,28.79z"/>
  <path class="fil0" d="M733.21 256.11c55.97,1.29 71.64,-13.29 76.61,-65.29 -51.51,-19.17 -84.82,-1.42 -76.61,65.29z"/>
  <path class="fil0" d="M1178.75 29.49c7.21,33.69 0.55,45.37 50.68,40.66 38.79,-3.65 36.68,-14.79 37.72,-51 -47.12,-11.71 -48.94,-16.46 -88.41,10.33z"/>
  <path class="fil0" d="M1340.58 43.94c45.75,26.2 64.89,27 92.44,-14.45 -12.34,-17.21 -5.71,-33.17 -53.69,-28.74 -33.36,3.08 -39.35,11 -38.75,43.19z"/>
  <path class="fil0" d="M455.53 644.62c55.96,12.32 63.67,-42.27 41.76,-83.67 -54.85,7.6 -61.93,38.56 -41.76,83.67z"/>
  <path class="fil0" d="M866.22 151.27c38.48,27.67 72.4,17.85 88.83,-27.07 -32.9,-46.52 -75.1,-21.67 -88.83,27.07z"/>
  <path class="fil1" d="M1388.55 2248.57c13.31,36.16 -17.62,15.03 22.83,36.36 26.73,14.09 22.65,5.5 50.65,6.41 -7.6,-30 -0.93,-33.24 -26.65,-47.66 -45.95,-25.75 -44.6,3.74 -46.83,4.89z"/>
  <path class="fil1" d="M1565.82 1923.82c3.91,2.88 -17.39,29.19 42.2,16.18 45.52,-9.94 22.73,-14.23 33.16,-29.71 -11.75,-7.48 23.59,-29.08 -42.08,-13.42 -41.41,9.87 -26.46,17.75 -33.27,26.95z"/>
  <path class="fil1" d="M1684.34 70.08c10.49,10.79 -17.53,18.81 35.72,26.77 65.63,9.82 27.3,-5.09 40.78,-13.24 -7.18,-11.51 9.53,-23.44 -31.39,-29.3 -73.9,-10.58 -30.16,6.07 -45.11,15.77z"/>
  <path class="fil1" d="M1023.51 83.61c3.45,2.21 -16.75,27.5 42.85,14.37 42.12,-9.28 21.11,-12.78 30.88,-27.91 -4.67,-3.31 20.01,-28.86 -41.32,-14.88 -22.14,5.05 -28.93,5.88 -32.41,28.41z"/>
 </g>
</svg>
