<?xml version="1.0" encoding="UTF-8"?>
<!DOCTYPE svg PUBLIC "-//W3C//DTD SVG 1.1//EN" "http://www.w3.org/Graphics/SVG/1.1/DTD/svg11.dtd">
<!-- Creator: CorelDRAW 2021 (64-Bit) -->
<svg xmlns="http://www.w3.org/2000/svg" xml:space="preserve" width="5.3485in" height="3.52863in" version="1.1" style="shape-rendering:geometricPrecision; text-rendering:geometricPrecision; image-rendering:optimizeQuality; fill-rule:evenodd; clip-rule:evenodd"
viewBox="0 0 5378.99 3548.75"
 xmlns:xlink="http://www.w3.org/1999/xlink"
 xmlns:xodm="http://www.corel.com/coreldraw/odm/2003">
 <defs>
  <style type="text/css">
   <![CDATA[
    .fil1 {fill:#003138}
    .fil3 {fill:#0CD98B}
    .fil0 {fill:#366939}
    .fil2 {fill:#588A59}
    .fil4 {fill:#6EB256}
   ]]>
  </style>
 </defs>
 <g id="Layer_x0020_1">
  <metadata id="CorelCorpID_0Corel-Layer"/>
  <g>
   <path class="fil0" d="M3799.45 1560.23c30.63,-14.52 276.24,-86.72 317.38,-85.44l8.94 2009.49 -323.1 2.42 -3.22 -1926.46zm-2367.69 448.51l-129.45 49.03 -261.73 -70.04c53.46,-18.05 -160.49,41.31 -221.35,57.61l-148.42 39.78 -62.77 33.01 64.03 -12.01 0.82 115.37 -143.3 78.8c-82.76,12.98 -404.35,69.91 -480.22,93.39l9.49 155.39c-14.35,12.78 -6.07,-14.21 -7.39,12.49 -1.85,37.56 -11.19,-7.14 9.47,8.2 -5.88,21.75 -11.98,19.9 8.92,14.08 -20.01,89.85 -3.83,346.12 -3.01,454.65 0.82,108.86 15.18,354.24 -2.26,448.48l-57.34 -0.19 -7.25 17.24 233.38 -8c34.21,1.18 80.15,20.97 113.87,-7.52l-98.26 -1.61 -10.65 -918.03c22.75,-1.73 -13.6,10.51 20.04,-2.3 33.35,-12.72 12.99,-4.88 25.95,-13.58l74.4 -0.33c90.64,-2.43 298.86,-40.41 366.23,-28.19l3.55 958.57c-53.54,8.25 -138.44,11.4 -201.14,4.27l-54.18 0c12.78,24.67 29.51,17.31 76.22,17.05l192.96 -9.91c14.91,-1.93 35.25,-1.52 68.15,-2.79l0.01 -6.63 -55.57 -0.33 0 -215.2c-0.74,-1.39 -1.45,-2.88 -2,-4.6 -14.49,-45.07 -7.74,17.45 -6.6,-68.65 3.19,-0.25 6.03,-0.52 8.6,-0.81l0 -147.39 -12.1 1.67 1.77 -142.15c5.29,0.37 8.54,1.01 10.33,1.15l0 -6.01c-0.59,-1.51 -1.29,-3.36 -2.04,-5.64l-8.29 10.5 7 -25.31c11.99,15.09 2.94,16.42 16.13,2.25l1.52 -0.24 -0.02 0 0 -47.28 -1.49 47.51 -16.13 -2.25 -5.19 -379.86c15.95,2.6 12.65,6.45 12.13,-8.92l10.69 2.61 0 -6.16 310.1 -102.64 4.6 -209.04 19.14 -9.42 -2.87 295.3c1.24,60.33 9.34,90.73 -11.32,146.06 -21.27,56.93 -14.36,73.8 -10.52,139.8l-110.51 37.16 -2 63.86c5,49.6 0.93,16.06 -7.48,28.52 -4.18,-4.06 -11.26,-11.38 -17.85,-15.16l-13.3 1.54c-1.5,2.84 -2.4,7.38 -2.4,14.17l22.22 -0.13 11.34 -0.43 8.19 620.56c-23.43,0.07 -58.01,2.38 -80.21,1.37 -10.86,-0.49 -21.84,-1.23 -32.35,-3.8 -28.75,-7.02 -18.76,-7.02 -27.36,-13.68l-10.06 3.22c34.72,28.83 102.82,19.06 146.31,8.96 40.94,-129.74 -35.25,-466.09 15.64,-558.15l9.36 -116.73 170.77 -7.12c52.05,6.98 20.73,-5.06 46.13,17.75l8.08 654.95c-72.49,1.72 -183.85,13.3 -236.15,-11.66 15.41,49.65 154.51,27.36 249.5,25.02l494.71 1.43c35.98,3.38 230.38,12.73 260.26,-12.65 24.51,-31.03 21.19,-330.04 -3.34,-362.57l3.34 362.57 -288.64 -11.5 0.5 -1133.59c63.81,-25.2 237.64,-86.55 285.89,-65.26 11.28,-39.42 -11.22,-11.21 17.92,-31.92 -24.47,68.15 -3.31,92.19 -2.78,137.92 0.8,68.31 -19.99,370.11 10.47,423.93l1.96 -410.8 153.56 -34.73 13.53 1127.59c-64.88,-7.69 -124.85,6.83 -172.87,-15.61 13.94,45.99 110.16,34.57 156.36,22.81l16.51 -7.2c88.43,26.9 288.33,2.83 403.14,11.8 163.24,12.75 984.82,-10.24 1027.45,-4.26 111.51,15.65 427.05,3.58 529.94,-2.71l16 0.04c1.65,0.11 19.93,3.57 27.19,4.5 41.43,5.35 160.23,14.67 191.73,-10.67 106.48,24.9 241.58,13.91 359.5,14 63.41,0.04 113.96,0.64 175.76,-5.62 42.08,-4.26 18.81,1.06 71.85,5.31 47.76,3.82 70.55,-4.55 81.88,-11 87.35,7.61 168.91,10 269.09,11.59 -37.75,-31.39 -187.86,-15.83 -239.85,-17.2l2.85 -290.22c68.11,-9.59 147.98,0.43 215.26,-15.64l0 -20.18c-94.59,6.18 -185.76,10.06 -207.04,9.62 -41.45,2.32 -44.03,-30.5 -1.38,-34.34 37.6,-3.38 125.84,-7.7 208.43,-11.88l0 -7.5c-47.67,-15.72 -143.67,-0.09 -218.99,1.49l3.86 -379.81 215.13 -19.67 0 -15.85c-81.42,4.91 -153.94,7.86 -172.63,7.46 -41.45,2.33 -44.03,-30.5 -1.38,-34.34 32.4,-2.91 102.42,-6.51 174.01,-10.13l0 -16.56 -219.2 14.61 4.11 -424.63c50.16,-26.81 145.58,-33.24 215.09,-41.68l0 -14.69c-75.83,10.42 -141.78,18.23 -159.51,19.24 -41.15,5.54 -46.28,-26.98 -4.06,-34.13 30.71,-5.2 95.71,-13.72 163.57,-22.49l0 -22.89 -219.29 37.1 3.88 -427.4 215.41 -45.48 0 -16.19c-88.28,21.09 -171.47,39.08 -191.71,42.14 -40.46,9.34 -48.59,-22.58 -7.21,-33.61 35.81,-9.54 119.54,-28.27 198.91,-46.13l0 -17.25 -219.19 44.15 1.95 -393.41c56.67,-11.57 140.73,-24.26 178.04,-53.27 7.78,-111.61 -67.86,-55.54 -147.9,-35.54 -55.02,13.76 -135.53,44.57 -192.2,35.58l-20.43 -866.17c92.16,-76.75 329.69,-122.42 349.14,-180.2 -80.52,-20.79 -983.65,443.31 -1245.46,543.92 -25.62,9.85 -40.59,15.13 -68.26,28.02l-42.15 20 -0.11 34.4 -0.59 132.18c-64.97,19.97 -371.42,144.42 -414.95,139.51 -1.11,-28.17 5.16,-50.74 -2.53,-69.1 -33.12,-79.07 -116.1,-70.45 -26.45,4.55l-5.14 84.52c-53,24.43 -105.38,37.9 -161.02,61.15l-322.08 119.4c-93.07,34.34 -125.92,23.26 -138.38,77.25l120.48 4.68 -2.22 204.81c-81.73,50.5 -216.59,75.06 -283.3,119.54l0.52 113.5c-40.65,13.09 -279.16,85.78 -304.27,127.37l72.81 25.81c23.1,4.53 43.74,7.9 62.33,13.7l-1.88 125.87c-46.41,3.22 -93.39,-2.38 -140,-3.3 -86.3,-1.7 -64.76,14.31 -115.81,26.62 -37.47,9.04 -222.71,5.05 -267.15,0.12l-11.5 -503.97c6.19,-50.27 41.51,-70.1 55.36,-123.59l-59.04 -18.43c-1.44,-3.77 -5.78,-2.63 -8.21,-4.61 0.29,-0.58 1.01,-5.47 1.69,-12.18l84.99 1.35 0.89 -17.16 -239.32 -143.12 -259.21 131.76 0.29 18.97 131.26 1.74c-3.25,16.63 -4.82,39.86 -8.37,45.6 -6.9,-0.47 -12.31,-2.02 -16.5,-4.19 -6.91,-3.57 6.11,-41.86 0.59,-41.97l-22.16 -0.51 -10.37 53.51c-24.58,44.46 -21.31,9.94 -52.55,58l61.27 54.76 -9.13 891.6c-0.43,-1.48 -2.26,5.12 -3.98,7.27 -22.86,17.66 -302.59,8.43 -380.17,11.15 -79.44,2.78 -72.4,15.14 -89.94,29.09l-9.63 -375.44 476.63 -16.71 -170.37 -135.24zm-202.47 76.69l-7.54 2.85c-21.29,-2.17 -14.33,-1.17 -12.56,4.76l-34.96 13.24c-19.58,6.02 -30.6,11.42 -39.98,15.14l-3.95 1.5c-18.2,6.49 -33.84,5.67 -103.4,-10.85 -56.25,-13.36 -127.82,-20.25 -168.49,-42.16 39.08,-15.8 136.43,-48.19 181.89,-40.7 38.76,6.39 159.97,33.71 189,56.22zm688.37 -647.84l-229.81 -5.29c3.28,7.73 7.04,18.24 11.37,32.17l208.54 -0.41c3.6,-10.03 6.89,-18.8 9.91,-26.47zm-1381.89 1030.79l-11.88 1.29 -56.75 2.58 2.58 -77.55 64.1 -4.94 1.95 78.62zm-115.41 12.46l-12.8 1.38c-1.95,0.03 -3.33,0.01 -3.83,0.17 -9.42,-13.1 -22.95,-32.9 -17.83,-52.46 11.73,-44.86 -9.21,-18.6 40.36,-25.53 27.68,57.75 10.03,72.58 -5.89,76.44zm-66.49 7.17l-30.88 3.33 -3.75 -77.41 31.27 1.61 3.35 72.47zm-76.75 8.28l-40.39 4.36 -27.6 1.85 1.08 -74 77.07 -5.75c-0,12.94 0.76,28.6 -0.86,41.6 -4.18,33.71 -6.66,25.2 -9.3,31.94zm762.76 -153.02l-131.11 37.4c-1.32,3.04 -1.71,5.46 -1.71,7.38l-14.19 4.23 -0.01 0c-3.38,-0.48 -7.49,-1.05 -12.47,-1.64 -2,2.61 -4.28,5.06 -6.82,7.39l-121.02 36.07 -0.12 -85.89 -10.77 -7.96c3.67,-0.67 7.25,-1.37 10.77,-2.09l105.33 -36.91c39.53,-19.21 71.07,-38.01 117.46,-42.91l-1.17 2.16 -7.06 2.47 -0.06 -12.82c5.8,4.67 10.6,6.92 14.59,7.73l13.62 -4.77c-2.72,-9.14 5.59,-15.23 49.17,-19.17l-0.08 1.96 11.17 -2.18 -2.24 102.01 0.07 0.06c-0.91,-0.7 -1.88,-1.42 -2.91,-2.12l-10.42 9.59zm-191.59 70.83c-1.29,0.61 -2.61,1.19 -3.94,1.77l3.94 -1.77zm-664.35 92.25l-5.84 -70.3 -40.43 2.74 -36.47 0.92 -2.45 -1.55 -11.34 84.44 64.57 3.51 31.95 -19.75zm377.26 -205.72l116.4 -61.79 77.78 16 -162.18 51.86 -32 -6.07zm367.34 -91.25l111.09 -39.64c-0.54,-1.51 4.14,-4.2 -1.64,-10.91l-113.22 42.44 0 -0.01 -4.92 1.64 -18.38 5.26 18.34 -5.24 0.05 -0.02 -18.38 5.26c-7,2.57 -13.39,4.99 -19.26,7.27l-90.09 29.99 -95.47 -12.7 -3.29 -125.63 125.4 -18.63 185.89 47.22c47.22,15.1 17.54,-5.88 40.91,26.29 26.4,5.32 9.64,-4.59 26.91,11.61 -25.74,-1.94 -31.93,-2.31 -32.77,-3.7l9 19.17 3.74 7.97 -425.94 150.74 -378.26 53.17 -126.44 17.77 -35.88 -8.97 9.78 -9.79 531.37 -80.29 301.46 -110.27zm-217.24 240.04c10.75,-31.19 6.23,-37.79 5,-84.72l-159.72 15.28 -2.72 84 115.16 -9.98 42.28 -4.57zm-524.73 135.13l19.42 337.47 -102.43 -5.38 -5.05 -329.11 88.07 -2.98zm-88.07 2.97l88.07 -2.97 -88.07 2.97zm4342.19 588.62c45.08,1.74 415.47,-10.82 432.27,-29.09 7.34,-7.99 8.37,-29.6 -64.74,-19.38 -35.47,4.95 -296.71,10.19 -368.26,15.32 -41.2,2.95 -39.28,34.67 0.74,33.15zm-4.09 -463.58c45.08,1.75 415.47,-10.82 432.27,-29.09 7.34,-7.99 8.37,-29.6 -64.74,-19.38 -35.47,4.96 -296.71,10.19 -368.26,15.32 -41.2,2.96 -39.28,34.68 0.74,33.15zm-3241.75 73.18l-155.15 7.84 118.59 -44.41 36.57 36.57zm1304.61 -507.69l12.83 1210.43 -141.15 -2.17 -2.26 -1185.14 130.58 -23.13zm-1039.43 952.24l199.99 -2.24 1.78 258.85 -195.12 -0.06 -6.65 -256.55zm2933.98 -30.54l517.47 -25.65 2.04 316.84 -517.79 4.03 -1.73 -295.22zm-802.98 -3.58l-9.34 -1975.37 186.01 -59.25 2.97 2237.34c-0.06,88.64 18.28,88.3 -66.99,88.5 -43,0.04 -73.23,4.73 -104.31,-7.67 -22.05,-64.93 -8.6,-203.78 -8.33,-283.56zm-38.9 72.98c15.66,20.47 8.57,67.83 8.75,107.23 0.17,38.72 4.01,79.59 -3.62,112.01 -70.45,14.84 -416.5,11.04 -498.77,2.75 -11.5,-297.75 -49.69,-236.56 318.56,-236.57 30.1,-0 60.17,0.07 90.26,-0.23 10.45,-0.1 37.64,-1.21 46.28,-0.36 44.81,4.39 36.7,13.13 38.53,15.17zm-1027.24 -1409.58c79.27,-17.47 172.35,-57.43 251.42,-85.1 86.26,-30.19 167.08,-79.79 253.48,-89.37l1.21 125.76c-0.34,363.37 15.43,1262.98 -5.26,1675.31l-485.38 1.75 -15.47 -1628.36zm-332.87 489.24l148.06 -36.64c0.17,313.1 14.73,889.23 -2.29,1173.09 -177.27,14.23 -137.77,1.64 -139.38,-165.2 -2.59,-269.58 -18.3,-744.31 -6.39,-971.25zm-856.21 846.21l95.88 -0.84 1.03 291.98 -99 -2.38 2.09 -288.75zm-102.7 -385.03l65.92 -18.65 4.87 692.46 -53.21 4.02 -17.59 -677.83zm-1134.99 148.35l111.1 -1.04 4.48 527.47 -105.83 1.45c-21.18,-55.21 -13.22,-483.39 -9.75,-527.88zm3461.55 -113.69l-1.57 385.65 -497.53 -1.98 -1.97 -349.3 501.07 -34.37zm-2101.45 -234.13c45.81,-34.4 143.31,-66.35 203.12,-68.88l-1.98 652.79c-56.79,9.66 -147.76,10.9 -192.82,-2.85 -22.37,-77.14 -10.48,-468.51 -8.32,-581.06zm-28.63 134.68l0.33 421.94 -97.46 -8.31 -1.35 -379.32 98.48 -34.3zm3471.68 -39.63c8.5,80.55 19.11,330.13 -2.51,390.29 -61.09,27.71 -403.15,22.36 -500.94,25.71l-1.53 -379.18 504.98 -36.81zm-1840.29 -198.56c113.95,-13.4 418.8,-71.02 497.1,-59.79l-3.53 364.8 -495.1 36.51 1.52 -341.53zm-1828.43 249.93c17.18,-28.79 8.65,-19.92 48.65,-34.06 40.34,-14.26 109.79,-50.83 146.52,-33.52 -13.96,38.73 -101.31,64.43 -139.93,74.39 -66.1,17.03 -40.78,2.46 -55.24,-6.81zm-126.3 -25.38c0.97,-78.48 6.66,-117.19 52.05,-166.72l47.01 74.24c4.33,20.15 -3.47,72.45 -6.39,101.92 -26.86,-43.41 -35.62,-17.22 -92.67,-9.44zm128.56 -42.2c35.55,-27.79 141.35,-60.01 193.24,-70.99 -12.97,43.85 -53.89,43.07 -92.58,56.11l-77.22 24.18c-30.03,0.48 -8.86,-0.26 -23.44,-9.29zm3667.4 -469.09c0.72,69.98 0.62,140.03 0.82,210.04 0.72,260.54 91.84,196.65 -505.4,241.15l2.8 -376.72 501.78 -74.48zm-3656.46 424.18c-65.07,-96.6 -81.22,-109.16 47.23,-110.6 78.96,-0.89 190.04,-9.07 264.7,1.78l-311.93 108.82zm2308.8 -604.09l0.66 366.64 -495.09 66.65 3.71 -358.12 490.72 -75.17zm-1553.13 217.62c37.86,-12.81 115.35,-33.96 157.89,-33.38l-0.77 103.95 -155.99 34.97 -1.12 -105.54zm189.01 48.44c3.57,-52.28 1.66,-41.08 61.93,-53.61 29.63,-6.16 52.18,-11.59 82.48,-18.49 53.75,-12.24 107.6,-28.32 160.4,-36.16 7.08,63.32 1.57,40.96 -138.9,78.29l-165.91 29.96zm-492.29 -225.95l233.54 4.5 0.26 156.76 -239.03 65.14 5.24 -226.4zm490.39 153.18c10.16,-43.08 58.9,-100.52 104.32,-121.73 36.07,-16.86 156.48,-8.64 199.58,0.76l6.22 51.91 -310.12 69.06zm-225.57 -0.93c-1.45,-46.9 -7.55,-50.78 9.58,-91.86 40.97,-12.44 75,-7.25 120.55,-7.97 127.73,-2.02 87.43,3 108.89,24.43 -46.96,37.36 -39.4,28.41 -114.73,46.28 -36.78,8.73 -77.61,22.04 -124.29,29.13zm-183.79 -511.05c2.78,-10.97 -24.87,-31.9 39.55,-20.37 32.46,5.81 11,1.75 22.25,11.1 39.88,33.09 -11.17,-22.83 9.67,11.42 23.57,38.74 -9.29,247.45 15.91,337.09l-119.42 -2.26c42.77,-25.98 -4.42,1.4 24.9,-3.21 1.92,-0.3 5.84,-0.79 7.68,-1.1l16.59 -3.76c1.33,-3.29 6.11,-0.94 8.74,-2.43 -64.51,-5.54 17.62,6.27 -24.21,-2.58l-15.01 -9.46c-5.56,-66.11 -19.32,-270.24 13.35,-314.44zm1280.76 -24.52c8.03,-47.5 15.53,-36.4 69.75,-55.17 41.96,-14.52 157.81,-65.12 191.31,-67.86 37.97,-3.1 194.73,7.39 230.25,17.04l4.65 414.68 -493.59 76.33 -2.37 -385.02zm-625.51 206.16c21.8,-10.38 38.95,-21.15 59.53,-13.6 -11.04,37.37 -19.1,35.33 -59.53,13.6zm-507.11 -258.91l-1.54 406.18 -39.67 0.82c-45.46,-120.27 37.47,-303.31 -47.67,-358.41 -131.78,-85.29 -104.18,190.78 -102.82,264.65 1.53,83.06 1.64,79.89 -25.44,95.95 -10.03,-13.48 -6.51,-3.95 -13.77,-29.2 -7.51,-26.1 -0.82,4.01 -4.2,-21.48l0.49 -146.99c0.11,-70.24 -0.36,-140.49 0.46,-208.73l234.16 -2.8zm3130.74 1847.62c-163.77,-24.38 -118.56,92.55 -121.56,-453.52 -1.05,-191.49 -0.46,-382.93 -1.52,-574.39 -2.12,-382.68 -11.61,-775.77 -4.05,-1157.35l123.5 -30.84 3.71 344.68c-4.3,93 -10.52,20.76 -35.48,88.91 31.32,60.12 34.82,0.41 35.51,100.54l-0.18 283.06c0.63,117.67 -12.9,43.28 -34.91,111.95 34.69,68.37 35.77,12.01 34.36,135.02 -0.97,84.27 8.6,271.5 -11.81,339.93 -13.92,46.66 12.49,63.43 11.91,144.16l-0.29 260.04c-5.35,57.35 -15.78,37.06 -18.44,68.94 -3.97,47.69 19.43,2.27 18.35,155.59 -0.43,60.89 -1.46,123.52 0.9,183.27zm-3409.39 -1872.61c22.21,-61.26 230.88,-47.72 288.14,-25.3 -50.97,26.48 -78.29,19.22 -147.78,21.24 -36.86,1.07 -117.38,12.89 -140.36,4.05zm1045.27 68.42c95.93,-49.52 300.47,-115.7 414.39,-157.43 157.72,-57.78 248.82,-119.43 441.12,-57.8l-3.45 81.32c-97.73,6.25 -197.11,-26.9 -285.44,2.75 -74.56,25.02 -128.38,54.6 -211.29,83.72 -361.82,127.07 -365.77,178.23 -355.33,47.45zm-1088.84 -132.01c11.84,-30.42 2.99,-17.07 28.68,-35.09 52.7,-36.97 271,-26.71 329.23,-20.09 -13.55,53.1 -5.76,49.59 -59.85,53.52l-298.06 1.67zm2748.04 -551.17l7.86 361.05 -213.51 54.78 -10.4 -360.8 216.06 -55.03zm265.56 -83.61l3.32 377.35c-56.47,18 -170.97,59.78 -230.53,45.11l-2.85 -356.39 230.06 -66.06zm178.2 203.47l-3.21 131.43 -138 28.61 2.03 -120.54 139.18 -39.5zm35.77 106.6c-15.41,-60.96 -19.7,-139.79 59.44,-131.89l-3.08 130.56c-52.73,18.9 -43.15,10.72 -56.35,1.33zm-47.7 76.94c37.02,45.4 -10.08,7 32.31,19.16 37.24,10.68 35.71,-13.52 89.35,-9.56 -0.31,77.64 10.48,299.44 -6.26,349.73 -13.63,13.13 4.77,4.98 -30.2,18.04 -2.13,0.8 -32.46,6.97 -36.87,7.71 -13.33,2.22 -45.44,8.77 -63.91,10.48l-27.49 3.75 -193.45 38.3 32.9 18.46c65.55,16.08 -35.38,8.12 68.57,-12.73 31,-6.22 38.7,-0.42 81.08,-13.7 32.86,-10.29 54.59,-23.11 85.77,-33.26 85.73,-27.9 83.26,6.47 91.98,16.28l-177.85 36.08 -6.26 27.15 15.17 1.92c1.85,-22.55 -12.99,-13.42 30.69,-10.02l132.01 -29.42c-3.43,98.93 14.79,331.56 -8.68,402.33 37.91,15.24 3.55,-9.02 1.97,9.5l6.9 32.54c-61.03,21.7 -241.85,45.62 -319.09,56.64 -223.41,31.86 -199.84,46.85 -260.41,-5.44 -20.07,38.35 -13.81,42.42 20.72,64.02 7.06,4.42 13.37,10.73 14.87,7.8 12.8,-25.02 8.52,291.3 8.85,357.91 -27.83,7.07 -53.04,5.14 -53.42,40.28 -0.41,38.74 21.49,28.75 51.76,44.92 0.18,42.36 10.83,343.01 -5.8,354.2 -1.54,1.03 -5.31,3.6 -7.17,4.87 -47.34,32.13 -36.43,21.62 -39.22,57.66 27.19,30.62 18.61,10.43 51.91,33.79l3.39 281.89c-211.77,-14.48 -213.6,37.95 -214.05,-66.49 -2.62,-626.52 7.96,-1370.8 -10.05,-1969.79 105.43,-9.31 118.84,-56.42 182.26,-18.15 -10.92,25.21 -12.31,15.3 18.34,21.57 0,-34.05 10.39,-32.38 -18.34,-21.57l15.45 -6.96 7.35 -29.44 782.91 -194.75c43.78,-11.73 72.4,-30.1 104.97,-12.33 -34.2,24.71 -397.8,115.76 -452.97,116.62zm10.75 -450.96l-0.68 232.42 -134.17 35.47c-20.67,-49.28 -12.2,-152.52 -10.9,-218.74l145.74 -49.15zm29.98 143.34c-2.05,-140.55 -16,-179.16 55.8,-164.77 9.69,36.52 7.72,95.28 9.46,142.08 2.98,80.22 17.54,83.76 -49.74,94.77l-15.52 -72.08zm-1847.13 286.71c121.91,-29.57 857.97,-320.53 894.83,-318.49 29.71,1.64 7.92,-3.24 27.36,8.78 -8.65,45.41 -10.14,38.03 -45.49,52.07 -86.61,34.42 -402.53,111.22 -431.99,173.83l125.42 30.6 0.67 198.68c-52.7,0.13 -100.72,-12.11 -152.35,-17.56 -108.79,-11.49 -269.52,95.6 -418.46,127.61l0.02 -255.53zm1157.8 -275.91c6.2,-50.95 -23.14,-30.82 103.75,-71.38 31.02,-9.91 79.1,-28.23 110.48,-32.86l-4.54 59.86c-31.85,13.18 -68.62,21.41 -102.88,31.46 -14.7,4.31 -37.59,12.35 -51.51,15.65 -47.71,11.31 -44.17,2.63 -55.29,-2.72zm-66.87 34.61l39.86 19.09 7.47 374.75 -316.56 80.17 -5.9 -397.11c-117.46,13.73 -151.18,78.65 -287.25,71.33l357.98 -150.72 7.46 0.08c16.82,-26.31 -22.8,-0.5 13.38,-12.24 25.36,-8.23 8.82,-0.25 20.1,4.63l44.08 0.56 -43.36 -27.57c16.73,-32.19 5.17,-45.01 -3.64,-79.68l217.27 36.68c2.45,28.46 6.97,66.21 12.77,93.73l-63.67 -13.72zm276.01 -452.37l2.61 271.35c-41.49,25.89 -139.99,57.84 -190.97,72.67 -62.95,18.32 -155.99,-1.7 -227.19,-18.89l-1.45 -146.03 417 -179.1zm288.72 255.84c68.29,-24.06 177.65,-61.13 242.78,-74.65 2.17,32.89 -63.69,40.43 -105.29,54.05l-326.64 112.08c-6.82,2.26 -30.27,8.53 -34.5,8.77 -22.3,1.21 -13.28,-1.31 -23.61,-5.91l247.26 -94.35zm-250.07 39.7c53.15,-21.96 472.03,-180.36 497.7,-170.61 -17.39,37.44 -69.15,43.03 -116.36,58.72 -46.59,15.47 -84.23,26.56 -128.16,40.26 -63.76,19.86 -228.95,87.61 -253.18,71.64zm-3.81 -114.3c64.23,-39.17 174.18,-75.52 247.17,-100.39l253.22 -91.02 -1.4 93.86 -498.62 172.19 -0.38 -74.65zm-5.86 -205.84c161.57,-50.06 339.48,-164.85 499.48,-209.37l3 192.39c-64.76,12.39 -175.29,64.7 -246.75,89.73 -61.11,21.41 -200.77,82.3 -253.63,89.66l-2.1 -162.4z"/>
  </g>
  <path class="fil1" d="M1978.97 2278.64l-1.08 847.77c24.53,32.54 27.85,331.54 3.34,362.57 -29.88,25.38 -224.28,16.02 -260.26,12.65l-494.71 -1.43c-94.99,2.33 -234.09,24.62 -249.5,-25.02l1.81 -537.18c-50.89,92.07 25.29,428.41 -15.64,558.15 -43.49,10.1 -111.59,19.87 -146.31,-8.96l-2.7 -46.54 -3.29 -6.02 -0.08 57c-32.9,1.27 -53.25,0.86 -68.15,2.79l-192.96 9.91c-46.71,0.26 -63.45,7.63 -76.22,-17.05l-59.65 0c-1.02,1.97 -2.13,4 -3.38,6.14 -0.83,-2.15 -1.57,-4.19 -2.23,-6.14l-59.42 0 -1.26 1.21c-33.72,28.49 -79.66,8.7 -113.87,7.52l-229.47 8 0.16 22.76 5374.92 21.96 -51.84 -45.15c-100.18,-1.58 -181.74,-3.98 -269.09,-11.59 -11.34,6.46 -34.12,14.83 -81.88,11 -53.04,-4.25 -29.76,-9.57 -71.85,-5.31 -61.79,6.26 -112.35,5.67 -175.76,5.62 -117.92,-0.09 -253.02,10.9 -359.5,-14 -31.5,25.34 -150.3,16.02 -191.73,10.67 -7.27,-0.93 -25.54,-4.39 -27.19,-4.5l-16 -0.04c-102.89,6.29 -418.42,18.36 -529.94,2.71 -42.63,-5.98 -864.21,17.01 -1027.45,4.26 -114.82,-8.97 -314.71,15.1 -403.14,-11.8l-16.51 7.2c-46.2,11.76 -142.42,23.17 -156.36,-22.81l3.82 -666.45c-30.46,-53.82 -9.68,-355.61 -10.47,-423.93 -0.53,-45.72 -21.69,-69.77 2.78,-137.92 -29.14,20.71 -6.64,-7.5 -17.92,31.92z"/>
  <path class="fil1" d="M3420.13 964.19l499.89 -214.78c14.77,-6.09 24.31,-10.77 41.27,-17.76 11.34,-4.67 24.37,-8.99 39.1,-14.59 192.77,-108.92 538.83,-292.03 707.72,-368.64 0,-26.74 -4.94,-18.68 24.1,-10.83 20.23,-27.29 13.37,-23.12 51.56,-28.01l23.33 -11.24 44.16 -21.9c6.05,-11.61 -22.05,-12.33 22.96,-10.71 6.29,-12.94 -14.4,-12.49 23,-11.05l-544.65 -6.4c-44.84,2.61 -169.77,72.75 -239.59,102.92 -41.95,18.12 -54.43,14.16 -70.09,52.56 67.21,29.7 345.77,9.4 447.48,14.5l-1096.1 527.2 25.86 18.74z"/>
  <path class="fil2" d="M4342.7 1427.93l-15.45 6.96c28.74,-10.81 18.34,-12.48 18.34,21.57l16.38 329.11c-28.24,14.19 -49.34,10.75 -50.37,48.61 -1.31,48.46 14.77,26.74 48.69,44.25l1.61 346.12 -38.72 17.43c39.05,33.71 43.14,39.45 100.97,30.75 -20.71,-5.19 -17.69,-26.61 15.03,-32.43 70.64,-12.56 329.91,-44.96 364.67,-53.58 71.64,-17.77 72.87,3.82 66.4,12.53 -0.27,0.36 -0.68,0.74 -1.17,1.11 13.27,-3.21 24.7,-6.41 33.58,-9.57l-6.9 -32.54c1.58,-18.52 35.94,5.74 -1.97,-9.5 -52.28,-17.93 -178.72,20.92 -241.75,31.55 -84.8,14.29 -165.81,29.61 -250.49,41.7l-1.44 -362.66 324.48 -75.4 4.04 -17.53c-114.1,29.31 -254.74,60.32 -281.92,64.44 -40.46,9.34 -48.59,-22.58 -7.21,-33.61 27.19,-7.24 82.04,-19.79 141.6,-33.23l-32.7 -18.34 -147.35 33.41 0.24 -328.6c45.62,-24.99 195.64,-50.62 246.16,-64.38 73.9,-20.14 185.06,-61.37 251.07,-65.35l1.81 346.65c-41.78,5.69 -103.82,13.16 -130.98,36.23l-27.49 3.75 27.49 -3.75c18.47,-1.71 50.59,-8.26 63.91,-10.48 4.4,-0.74 34.74,-6.91 36.87,-7.71 34.97,-13.05 16.57,-4.91 30.2,-18.04 16.74,-50.29 5.95,-272.09 6.26,-349.73 -53.64,-3.96 -52.11,20.24 -89.35,9.56 -42.4,-12.17 4.7,26.24 -32.31,-19.16 -85.13,25.36 -397.38,82.75 -442.25,119.89zm501.32 305.9l64.71 -13.13c-8.71,-9.81 -6.25,-44.18 -91.98,-16.28 -13.07,4.26 -24.49,8.99 -35.76,13.8 14.5,-3.58 25.21,-6.43 30.56,-8.25 72.45,-24.63 75.62,-2.43 69.69,7.14 -2.4,3.86 -16.09,9.7 -37.22,16.71zm-73.54 42c-43.68,-3.4 -28.84,-12.52 -30.69,10.02l30.69 -10.02z"/>
  <path class="fil0" d="M4352.57 248.27l544.65 6.39c-37.4,-1.44 -16.71,-1.88 -23,11.06 -45.02,-1.63 -16.92,-0.9 -22.96,10.71l-44.16 21.9 -23.33 11.24c-38.2,4.89 -31.34,0.72 -51.56,28.01 -29.04,-7.85 -24.1,-15.91 -24.1,10.83l24.1 -10.83 51.56 -28.01 23.33 -11.24c26.74,-1.88 -4.29,12.95 26.76,-4.62 17.34,-9.81 9.68,-7.59 17.4,-17.28 39.35,4.38 17.3,3.9 22.96,-10.71 38.83,6.76 16.82,6.18 23,-11.06 38.08,-1.84 342.04,-127.93 358.63,-176.02 -87.27,1.69 -174.56,96.21 -241.28,83.56 -66.4,-12.6 -24.17,-5.78 -42.77,-21.96 47.03,-15.01 264.51,-98.04 283.2,-140.24 -55.31,3.55 -348.09,127.61 -368.89,167.38l72.99 32.38c-60.92,54.38 -317.4,32.57 -444.53,32.64l-153.19 10.84c-2.44,0.99 -6.07,3.06 -8.83,5.02z"/>
  <path class="fil1" d="M3950.12 1036.38l119.38 9.44 63.67 13.73c-5.8,-27.53 -10.32,-65.28 -12.77,-93.74l-217.28 -36.68c8.81,34.66 20.38,47.49 3.65,79.68l43.35 27.57zm-85.01 6.96l40.94 -7.53c-11.28,-4.88 5.25,-12.86 -20.1,-4.63 -36.18,11.74 3.44,-14.07 -13.38,12.23l-7.46 -0.08z"/>
  <path class="fil1" d="M1779.19 1721.67l29.72 10.35c6.16,64.2 13.4,268.05 -3.84,316.13 -2.63,1.48 -7.4,-0.87 -8.74,2.43l-16.59 3.75c-1.83,0.31 -5.75,0.8 -7.67,1.1 -29.33,4.6 17.87,-22.77 -24.91,3.21l119.42 2.26c-25.21,-89.63 7.67,-298.34 -15.91,-337.08 -20.84,-34.24 30.21,21.68 -9.67,-11.42 -11.26,-9.35 10.2,-5.29 -22.26,-11.1 -64.42,-11.53 -36.78,9.4 -39.55,20.37z"/>
  <path class="fil3" d="M1805.07 2048.15c17.24,-48.08 9.99,-251.92 3.84,-316.13l-29.72 -10.35c-32.67,44.21 -18.91,248.34 -13.35,314.45l15.01 9.45c41.83,8.85 -40.3,-2.96 24.21,2.59z"/>
  <path class="fil0" d="M5010.22 357.99c32.4,25.95 70.7,22.09 119.67,30.71 16.8,2.96 43.95,10.03 64.79,13.57 63.26,10.75 53.37,-2.04 67.89,-17.23l-179.63 -33.4c37.57,-13.24 163.85,-66.24 181.22,-95.01 -30.65,-15.66 -232.44,79.13 -238.19,83.57 -16.74,12.96 -5.02,2.23 -15.75,17.79z"/>
  <path class="fil1" d="M432.72 3354.88c-15.1,3.12 -15.43,159.32 2.66,164.5 37.62,-7 38.05,26.39 36.8,-94.03 -0.57,-55.32 10.31,-81.07 -39.46,-70.47z"/>
  <path class="fil1" d="M769.28 2884.25l-1.52 0.24c-13.19,14.17 -4.14,12.84 -16.13,-2.25l-7 25.31 8.29 -10.5 26.99 5 144.93 -21.97c0,-6.79 0.9,-11.33 2.4,-14.17l-157.96 18.34zm171.27 -19.89c6.58,3.78 13.66,11.09 17.85,15.16 8.41,-12.47 12.48,21.07 7.48,-28.52l-0.33 10.47 -24.99 2.9z"/>
  <polygon class="fil0" points="786.86,2616.2 787.95,2546.59 782.61,2548.58 775.79,2549.91 774.27,2617.49 "/>
  <path class="fil4" d="M166.95 2508.33l-77.57 7.42 11.81 -76.04 -2.44 -1.56 -11.34 84.45 80.71 4.38 -1.18 -18.65 17.75 7.08 -6.6 -79.36 -40.43 2.74c32.13,8.01 17.17,-2.87 30.92,14.04l-1.65 55.5z"/>
  <path class="fil1" d="M384.68 3357.71c15.11,3.12 15.44,159.32 -2.66,164.5 -37.61,-7 -38.04,26.39 -36.79,-94.03 0.57,-55.32 -10.32,-81.07 39.45,-70.46z"/>
  <path class="fil1" d="M432.72 3117.86c-15.1,3.12 -15.43,159.32 2.66,164.5 37.62,-7 38.05,26.39 36.8,-94.03 -0.57,-55.32 10.31,-81.07 -39.46,-70.47z"/>
  <path class="fil1" d="M384.68 3120.69c15.11,3.12 15.44,159.32 -2.66,164.5 -37.61,-7 -38.04,26.39 -36.79,-94.03 0.57,-55.32 -10.32,-81.07 39.45,-70.46z"/>
  <path class="fil1" d="M432.72 2880.84c-15.1,3.12 -15.43,159.32 2.66,164.5 37.62,-7 38.05,26.39 36.8,-94.03 -0.57,-55.32 10.31,-81.07 -39.46,-70.46z"/>
  <path class="fil1" d="M384.68 2883.67c15.11,3.12 15.44,159.32 -2.66,164.5 -37.61,-7 -38.04,26.39 -36.79,-94.04 0.57,-55.32 -10.32,-81.07 39.45,-70.46z"/>
  <path class="fil1" d="M432.72 2643.82c-15.1,3.12 -15.43,159.32 2.66,164.5 37.62,-7 38.05,26.39 36.8,-94.03 -0.57,-55.32 10.31,-81.07 -39.46,-70.46z"/>
  <path class="fil1" d="M384.68 2646.65c15.11,3.12 15.44,159.32 -2.66,164.5 -37.61,-7 -38.04,26.39 -36.79,-94.03 0.57,-55.32 -10.32,-81.07 39.45,-70.47z"/>
  <polygon class="fil0" points="800.2,2613.71 801.3,2544.1 795.96,2546.09 789.55,2547.33 787.62,2614.99 "/>
  <polygon class="fil0" points="813.55,2611.22 814.64,2541.61 809.3,2543.6 802.32,2544.96 800.97,2612.5 "/>
  <polygon class="fil0" points="796.87,3124.88 799.28,3024.35 787.49,3027.23 772.46,3029.14 769.1,3126.73 "/>
  <polygon class="fil0" points="826.31,3121.29 828.73,3020.76 816.94,3023.63 802.81,3025.43 798.55,3123.13 "/>
  <polygon class="fil0" points="855.76,3117.69 858.18,3017.16 846.39,3020.03 830.99,3022 828,3119.54 "/>
  <polygon class="fil0" points="790.47,3340.79 792.88,3240.26 781.1,3243.13 766.07,3245.05 762.71,3342.64 "/>
  <polygon class="fil0" points="819.92,3337.19 822.33,3236.66 810.55,3239.54 796.42,3241.34 792.16,3339.04 "/>
  <polygon class="fil0" points="849.37,3333.6 851.78,3233.07 840,3235.94 824.6,3237.9 821.61,3335.44 "/>
  <polygon class="fil0" points="790.47,3496.44 792.88,3395.92 781.1,3398.8 766.07,3400.71 762.71,3498.3 "/>
  <polygon class="fil0" points="819.92,3492.85 822.33,3392.33 810.55,3395.2 796.42,3396.99 792.16,3494.7 "/>
  <polygon class="fil0" points="849.37,3489.25 851.78,3388.73 840,3391.6 824.6,3393.57 821.61,3491.11 "/>
  <polygon class="fil0" points="885.01,3115.38 887.42,3014.86 875.64,3017.73 860.24,3019.69 857.25,3117.23 "/>
  <polygon class="fil0" points="914.26,3113.07 916.67,3012.54 904.88,3015.42 889.49,3017.38 886.5,3114.92 "/>
  <polygon class="fil0" points="943.51,3110.76 945.92,3010.24 934.13,3013.11 918.73,3015.07 915.75,3112.61 "/>
  <polygon class="fil0" points="827.53,2606.97 828.62,2537.35 823.28,2539.34 816.3,2540.7 814.95,2608.25 "/>
  <polygon class="fil0" points="841.5,2602.71 842.59,2533.1 837.25,2535.09 830.27,2536.44 828.92,2603.99 "/>
  <polygon class="fil0" points="855.48,2598.45 856.57,2528.84 851.23,2530.83 844.25,2532.19 842.9,2599.74 "/>
  <polygon class="fil0" points="869.45,2594.2 870.54,2524.58 865.2,2526.58 858.22,2527.93 856.87,2595.48 "/>
  <polygon class="fil0" points="791.66,2883.66 793.89,2716.59 782.96,2721.37 769.02,2724.55 765.91,2886.74 "/>
  <polygon class="fil0" points="818.97,2877.69 821.21,2710.62 810.28,2715.39 797.18,2718.38 793.22,2880.76 "/>
  <polygon class="fil0" points="846.29,2871.71 848.53,2704.64 837.59,2709.42 823.31,2712.68 820.54,2874.79 "/>
  <polygon class="fil0" points="873.42,2867.87 875.66,2700.8 864.72,2705.58 850.44,2708.84 847.67,2870.95 "/>
  <polygon class="fil0" points="900.55,2864.04 902.78,2696.97 891.85,2701.74 877.56,2705 874.8,2867.11 "/>
  <polygon class="fil0" points="927.68,2860.2 929.91,2693.13 918.98,2697.91 904.69,2701.16 901.92,2863.28 "/>
  <polygon class="fil0" points="784.3,2417.75 785.46,2344.23 779.81,2346.53 772.62,2348.17 771.02,2419.56 "/>
  <polygon class="fil0" points="802.9,2411.86 804.05,2338.34 798.42,2340.63 791.66,2342.18 789.62,2413.67 "/>
  <polygon class="fil0" points="821.5,2405.96 822.65,2332.44 817.02,2334.74 809.65,2336.42 808.22,2407.77 "/>
  <polygon class="fil0" points="840.77,2398.18 841.92,2324.66 836.28,2326.95 828.91,2328.64 827.48,2399.99 "/>
  <polygon class="fil0" points="860.03,2390.4 861.18,2316.88 855.54,2319.17 848.17,2320.86 846.74,2392.21 "/>
  <polygon class="fil0" points="879.29,2382.62 880.44,2309.1 874.8,2311.39 867.44,2313.07 866.01,2384.43 "/>
  <polygon class="fil0" points="898.55,2374.83 899.71,2301.31 894.07,2303.6 886.7,2305.29 885.27,2376.64 "/>
  <polygon class="fil0" points="917.34,2368.55 918.49,2295.03 912.85,2297.32 905.48,2299.01 904.05,2370.36 "/>
  <polygon class="fil0" points="936.12,2362.28 937.27,2288.75 931.63,2291.04 924.27,2292.73 922.84,2364.08 "/>
  <polygon class="fil0" points="954.9,2356 956.06,2282.47 950.42,2284.76 943.05,2286.45 941.62,2357.8 "/>
  <polygon class="fil0" points="973.69,2349.71 974.84,2276.19 969.2,2278.49 961.83,2280.17 960.4,2351.52 "/>
  <polygon class="fil0" points="992.47,2343.43 993.63,2269.91 987.99,2272.2 980.62,2273.89 979.19,2345.24 "/>
  <polygon class="fil0" points="1011.26,2337.15 1012.41,2263.63 1006.77,2265.92 999.4,2267.61 997.98,2338.96 "/>
  <polygon class="fil0" points="1030.04,2330.87 1031.2,2257.35 1025.56,2259.64 1018.19,2261.33 1016.76,2332.68 "/>
 </g>
</svg>
