<svg xmlns="http://www.w3.org/2000/svg" xmlns:xlink="http://www.w3.org/1999/xlink" xmlns:xodm="http://www.corel.com/coreldraw/odm/2003" xml:space="preserve" version="1.1" style="shape-rendering:geometricPrecision; text-rendering:geometricPrecision; image-rendering:optimizeQuality; fill-rule:evenodd; clip-rule:evenodd" viewBox="-0.03 0.02 3554.31 6057.09">
 <defs>
  <style type="text/css">
   <![CDATA[
    .fil0 {fill:#D4DEE1}
    .fil1 {fill:#FEFEFE}
   ]]>
  </style>
 </defs>
 <g id="Layer_x0020_1">
  <metadata id="CorelCorpID_0Corel-Layer"/>
  <g id="_1884440593040">
   <path class="fil0" d="M767.08 3888.5c56.89,-17.44 530.38,211.87 625.16,252.35 235.63,100.64 441.82,176.45 667.42,259.74 214.32,79.13 461.77,156.66 705.08,216.68 195.51,48.23 609.71,104.72 765.44,157.98 2.12,3.67 3.84,6.43 5.26,8.7l0 -80.47c-230.61,-0.63 -693.26,-105.09 -865.27,-169.38 -32.25,-164.15 -55.24,-470.65 -70.22,-644.46 -47.68,-553.13 -92.31,-184.39 -95.87,-428.7 -0.81,-55.07 9.4,-112.16 24.28,-152.67 141.27,-29.74 844.03,167.92 1007.08,225.55l0 -75.03 -747.8 -171.1c-44.2,-8.47 -91.97,-17.96 -119.03,-23.66l-129.41 -42.5c-8.04,-383.05 160.5,-1385.71 279.41,-1706.34 300.76,-88.59 589.81,-261 716.82,-294.97l0 -70.58c-14.02,11.62 -39.63,19.44 -87.6,42.18l-460.43 213.47c-611.84,252.07 -535.93,-62.13 -611.36,-130.42 -45.14,75.88 -23.47,326.36 378.62,256.16l-142.96 570.54c-6.56,38.99 -5.47,80.18 -15.5,119.23 -16.03,62.42 0.12,6.81 -20,50.56 -20,43.47 -75.55,55.81 -135.3,55.04 -31.09,-0.38 -32.83,-1.89 -60.62,-9.66 -45.2,-12.66 -25.03,-6.75 -49.65,-26.27 -33.71,-64.2 -66.07,-719.29 -82.97,-870.13 -21.71,-193.75 -175.35,-274.24 -342.07,-459.16l-84.43 -96.42c7.21,2.53 15.27,6.35 21.06,9.08l96.34 52.97c160.19,102.58 279.02,258.41 338.76,263.73 134.1,-234.63 -258.32,-940.87 -268.92,-1063.75 383.15,300.98 370.22,622.54 526.97,984.1 222.74,513.79 701.27,6.52 1000.05,-60.76l0 -67.79c-324.82,164.57 -852.93,542.26 -968.99,48.77 5.03,-2.99 12.16,-5.88 15.81,-7.6 279.97,-131.22 586.19,-380.73 953.18,-408.54l0 -59.38c-376.86,54.37 -581.54,241.03 -780.23,294.62 36.7,-104.82 59.04,-102 167.46,-205.09 129.36,-123 419.08,-354.83 612.77,-384.58l0 -78.7c-96.24,53.78 -256.16,150.96 -350.88,174.23 -86.32,21.19 4.05,-34.61 -33.23,16.32 -100.05,136.67 -461.52,370.95 -566.79,585.79 -136.7,-112.5 -146.51,-494.71 -445.48,-796.08 -95.37,-96.13 -134.32,-90.72 -231.51,-162.08 -28.22,71.58 119.5,327.91 159.67,431.82 66.2,171.19 129.21,310.3 165.2,496.88 -97.3,-49.62 -112.96,-97.12 -201.45,-181.29 -367.33,-349.33 -721.87,-640.22 -1277.91,-554.3 -555.59,85.85 -349.28,-54.45 -551.6,-117.2 -200.85,535.04 164.08,686.55 340.97,836.89 143.51,121.95 267.57,349.1 485.94,397.67 326.66,72.66 33.82,-14.08 356.78,100.26 198.01,70.11 590.59,91.8 737.62,-42.75 57.72,47 27.42,9.61 62.14,81.34 12.41,25.63 18.18,54.2 23.69,101.25 53.31,454.68 87.1,1226.52 37.03,1646.54 -104.43,0.66 -496.22,-37.6 -579.01,-10.82 -103.29,33.42 -33.68,6.32 -63.03,47.82 -55.07,56.92 -149.04,698.02 -186.44,850.25l-698.51 -297.32 -204.77 2184.37 -513.88 9.7c118.56,63.25 3290.46,-16.16 3476.72,25.86 29.16,6.58 47.56,24.3 58.71,50.12l0 -80.99 -2959.17 1.11c-10.92,-187.28 156.08,-2017.2 190.82,-2088.71zm859.33 -571.27c77.47,13 646.53,243.24 891.73,304.39 9.37,305.12 79.82,578.77 87.24,888.24 -133.32,-20.22 -876.4,-277.18 -1019.31,-344.76 -45.66,-21.59 -7.14,-5.11 -56.52,-31.2 -90.48,-47.82 68.18,-1.87 -61,-26.83l157.86 -789.84zm607.96 134.36c-115.29,-3.86 -488.04,-107.48 -564.8,-217.11l456.57 11.44c17.93,2.96 38.21,7.45 55.88,13.24 41.44,13.56 36.86,12.98 58.24,27.45l-5.9 164.98zm83.36 -568.97c44.7,-8.69 98.51,0.79 184.75,-2.71l-55.48 655.72 -162.91 -43.3 33.64 -609.71zm196.12 -68.54c-187.84,26.45 -193.94,0.94 -197.09,-132.07 -2.36,-99.91 2.48,-213.77 2.54,-307.92l250.02 5.35 -55.47 434.65zm-2314 -2571.2c97.17,58.18 54.34,203.9 404.93,277.73 214.67,45.22 380.73,36.23 581.37,90.81 459.77,125.09 646.3,392.98 835.11,513.64 -54.51,69.18 32.92,12.52 -80.9,65.6 -89.46,41.73 -467.13,72.76 -561.93,74.28 -655.06,10.46 -400.83,-83.31 -965.67,-504.32 -162.72,-121.3 -222.38,-237.28 -212.91,-517.75zm2047.11 855.54c-103.99,-49.88 -256.78,-220.77 -410.88,-308.05 -362.91,-205.56 -656.77,-290.8 -1087.06,-329.56 -240.36,-21.65 -400.17,-12.14 -461.2,-238.38 328.05,108.81 276.81,26.36 612.98,7.74 232.02,-12.86 407.33,48.14 585.76,153.41 205.79,121.42 706.14,508.51 760.4,714.83z"/>
   <path class="fil1" d="M2566.44 1031.11c118.13,502.23 663,102.14 986.03,-57.31l0.22 -359.98c-374.67,21.12 -686.1,276.41 -970.43,409.67 -3.66,1.72 -10.79,4.63 -15.83,7.61z"/>
   <path class="fil1" d="M2755.2 850.21c201.03,-54.23 408.14,-244.65 793.53,-296.51l5.55 -295.45c-193.24,16.6 -497.99,259.81 -631.62,386.87 -108.42,103.09 -130.75,100.27 -167.46,205.09z"/>
   <path class="fil1" d="M2234.37 3451.58l5.89 -164.98c-21.38,-14.47 -16.8,-13.89 -58.24,-27.45 -17.67,-5.79 -37.94,-10.29 -55.87,-13.24l-456.58 -11.43c76.75,109.61 449.51,213.25 564.8,217.1z"/>
  </g>
 </g>
</svg>