<?xml version="1.0" encoding="UTF-8"?>
<!DOCTYPE svg PUBLIC "-//W3C//DTD SVG 1.1//EN" "http://www.w3.org/Graphics/SVG/1.1/DTD/svg11.dtd">
<!-- Creator: CorelDRAW 2021 (64-Bit) -->
<svg xmlns="http://www.w3.org/2000/svg" xml:space="preserve" width="6.35532in" height="1.77503in" version="1.1" style="shape-rendering:geometricPrecision; text-rendering:geometricPrecision; image-rendering:optimizeQuality; fill-rule:evenodd; clip-rule:evenodd"
viewBox="0 0 6349.71 1773.46"
 xmlns:xlink="http://www.w3.org/1999/xlink"
 xmlns:xodm="http://www.corel.com/coreldraw/odm/2003">
 <defs>
  <style type="text/css">
   <![CDATA[
    .fil1 {fill:#033234}
    .fil0 {fill:#7CC259}
   ]]>
  </style>
 </defs>
 <g id="Layer_x0020_1">
  <metadata id="CorelCorpID_0Corel-Layer"/>
  <g id="_1786466769584">
   <path class="fil0" d="M3173.44 1651.87c69.69,1.95 140.72,-3.49 205.78,-15.07 56.52,-10.07 103.14,-34.17 150.19,-44.23 -36.8,-25.48 -13.67,-12.04 -64.18,7.12 -66.91,25.38 -182.18,41.7 -291.79,38.78l0 13.4zm0 -22.3c126.21,3.34 259.69,-22.03 368.37,-74.93l-25.56 14.84c17.59,12.16 24.84,4.56 35.02,11.36 -1.1,27.76 3.72,63.97 -5.73,84.82l-372.09 2.64 0 19.29c300.73,-3.29 631.6,-12.58 773.54,-18.33 106.9,-4.33 212.84,-14.97 318.8,-18.52 42.17,-1.41 38.03,-4.4 61.71,19.95l33.71 27.68c1.28,0.94 3.12,2.23 4.35,3.2 1.21,0.95 2.94,2.37 4.11,3.34 1.15,0.96 2.77,2.5 3.89,3.49 23.56,20.75 53.2,63.94 95.95,57.36l-96.13 -79.96c-28.82,-25.6 -33.97,-18.42 -41.47,-39.99l168.52 -11.33c4.58,-18.7 29.47,-83 29.06,-110.8 -0.33,-22.27 -14.98,-6.04 -19,-19.34 -1.59,1.97 -23,107.75 -29.06,116.83l-700.03 42.24 6.43 -116.04c123.95,54.79 122.45,87.26 348.73,88.06 82.33,0.29 300.45,-29.35 300.17,-131.92l-69.7 -18.05c-44.67,96.76 -205.15,112.7 -321.6,106.35 -60.44,-3.3 -128.58,-12.37 -185.1,-31.27 -71.24,-23.81 -82.45,-43.27 -68.9,-127.84 -15.81,17.57 -9.11,51.46 -11.43,81.56 -24.74,-7.63 -180.56,-16.38 -212.61,0.42l200.28 2.38c-0.42,48.24 8.81,89.44 -1,141.94l-202.24 8.5c2.32,-62.68 3.04,-93 10.53,-154.94 -65.64,14.08 -3.74,16.11 -84.43,51.31 -81.76,35.67 -203.69,53.9 -317.08,50.84l0 14.84z"/>
   <path class="fil0" d="M3176.26 1651.87c-69.69,1.95 -140.72,-3.49 -205.78,-15.07 -56.52,-10.07 -103.14,-34.17 -150.19,-44.23 36.8,-25.48 13.67,-12.04 64.18,7.12 66.91,25.38 182.18,41.7 291.79,38.78l0 13.4zm0 -22.3c-126.21,3.34 -259.69,-22.03 -368.37,-74.93l25.56 14.84c-17.59,12.16 -24.84,4.56 -35.02,11.36 1.1,27.76 -3.72,63.97 5.73,84.82l372.09 2.64 0 19.29c-300.73,-3.29 -631.6,-12.58 -773.54,-18.33 -106.9,-4.33 -212.84,-14.97 -318.8,-18.52 -42.17,-1.41 -38.03,-4.4 -61.71,19.95l-33.71 27.68c-1.28,0.94 -3.12,2.23 -4.35,3.2 -1.21,0.95 -2.94,2.37 -4.11,3.34 -1.15,0.96 -2.77,2.5 -3.89,3.49 -23.56,20.75 -53.2,63.94 -95.95,57.36l96.13 -79.96c28.82,-25.6 33.97,-18.42 41.47,-39.99l-168.52 -11.33c-4.58,-18.7 -29.47,-83 -29.06,-110.8 0.33,-22.27 14.98,-6.04 19,-19.34 1.59,1.97 23,107.75 29.06,116.83l700.03 42.24 -6.43 -116.04c-123.95,54.79 -122.45,87.26 -348.73,88.06 -82.33,0.29 -300.45,-29.35 -300.17,-131.92l69.7 -18.05c44.67,96.76 205.15,112.7 321.6,106.35 60.44,-3.3 128.58,-12.37 185.1,-31.27 71.24,-23.81 82.45,-43.27 68.9,-127.84 15.81,17.57 9.11,51.46 11.43,81.56 24.74,-7.63 180.56,-16.38 212.61,0.42l-200.28 2.38c0.42,48.24 -8.81,89.44 1,141.94l202.24 8.5c-2.32,-62.68 -3.04,-93 -10.53,-154.94 65.64,14.08 3.74,16.11 84.43,51.31 81.76,35.67 203.69,53.9 317.08,50.84l0 14.84z"/>
   <path class="fil1" d="M6196.22 1591.71c29,7.02 33.46,39.58 56.62,80.92 19.1,34.09 47.64,57.79 23.64,87.32 -18.13,-20.03 -35.65,-55.12 -51.27,-82.23 -16.89,-29.33 -53.37,-58.95 -28.99,-86.01zm-2012.63 -271.38c8,4.79 -2.75,1.43 20.33,9.98 28.27,10.47 132.68,21.9 164.02,87.39 26.13,54.6 -12.8,57.6 69.32,58.87 -10.31,-111.39 -137.79,-150.51 -253.67,-156.24zm1083.62 -795.1c-15.74,23.38 -9.26,48.72 -9.49,84.31 -0.54,86.8 -0.19,60.41 17.08,64.95 7.68,-22.51 3.44,-54.67 3.6,-80.17 0.61,-96.58 2,-58.59 -11.19,-69.08zm-606.02 818.23c-6.65,1.37 -8,57.61 -3,79.99 -9.38,-0.65 -18.85,-1.39 -28.21,-2.19 4.46,-23.64 3,-76.47 -3.45,-77.8 -26.92,-5.74 -21.03,8.19 -21.34,38.11 -0.19,18.25 -0.31,29.97 0.07,37.46 -26.12,-2.47 -49.72,-5 -65.76,-6.39l-3.93 -491.99 225.1 -15.81 0 12.39 0.02 0 0.88 504.24c-16.05,4.7 -46.02,5 -79.6,3.37 0.95,-6.69 0.82,-19.37 0.57,-43.28 -0.31,-29.92 5.58,-43.85 -21.34,-38.11zm1.26 88.9l0.18 0.07 0.42 -0.07c45.5,0.15 86.27,2.93 99.24,19.47 -12.45,20.75 10.27,16.93 -26.7,10.26 -6.97,-1.26 -24.07,-9.23 -35.28,-12.13 -75.24,-19.51 -149.14,22.35 -245.06,24.14 -29.9,-75.41 -31.46,-93.37 -99.99,-127.05 -171.42,-84.22 -427.19,-38.49 -567.38,43.8l-2.12 -112.31c106.35,4.61 647.44,16.07 699.91,45.45l13.67 76.19c11.93,40.89 -15.64,-35 4.51,11.47 11.34,26.16 90.21,20.51 158.61,20.71zm137.83 -480.32l0.61 -39.06 -3 1.12 -3.82 0.74 -0.86 37.92 7.06 -0.72zm-139.1 263.22c-8.17,1.69 -8.35,86.17 1.44,88.97 20.35,-3.79 20.58,14.27 19.9,-50.86 -0.31,-29.92 5.58,-43.85 -21.34,-38.11zm0 -128.2c-8.17,1.68 -8.35,86.18 1.44,88.97 20.35,-3.78 20.58,14.27 19.9,-50.86 -0.31,-29.92 5.58,-43.85 -21.34,-38.11zm0 -128.2c-8.17,1.69 -8.35,86.18 1.44,88.97 20.35,-3.79 20.58,14.27 19.9,-50.86 -0.31,-29.91 5.58,-43.85 -21.34,-38.11zm146.59 -8.22l0.61 -39.06 -3 1.12 -3.6 0.7 -1.08 37.97 7.06 -0.72zm7.49 -1.4l0.61 -39.06 -3 1.12 -3.92 0.76 -0.76 37.91 7.06 -0.72zm-20.52 258.26l1.04 -43.32 -5.08 1.24 -6.47 0.83 -1.45 42.06 11.96 -0.8zm12.69 -1.55l1.04 -43.33 -5.08 1.24 -6.09 0.77 -1.84 42.11 11.97 -0.79zm12.69 -1.55l1.04 -43.33 -5.08 1.24 -6.64 0.85 -1.29 42.04 11.97 -0.79zm-19.38 145.02l1.04 -43.32 -5.08 1.24 -6.47 0.83 -1.45 42.06 11.96 -0.8zm12.69 -1.55l1.04 -43.32 -5.08 1.24 -6.09 0.77 -1.84 42.11 11.97 -0.8zm12.69 -1.55l1.04 -43.32 -5.08 1.24 -6.64 0.85 -1.29 42.04 11.97 -0.8zm-25.39 70.19l1.04 -43.33 -5.08 1.24 -6.47 0.83 -1.45 42.06 11.96 -0.79zm12.69 -1.55l1.04 -43.33 -5.08 1.24 -6.09 0.77 -1.84 42.11 11.97 -0.79zm12.69 -1.55l1.04 -43.33 -5.08 1.24 -6.64 0.85 -1.29 42.04 11.97 -0.79zm6.6 -210.01l1.04 -43.33 -5.08 1.24 -6.64 0.85 -1.29 42.04 11.97 -0.79zm12.61 -1l1.04 -43.33 -5.08 1.24 -6.64 0.85 -1.29 42.04 11.97 -0.79zm12.6 -1l1.04 -43.33 -5.08 1.24 -6.64 0.85 -1.29 42.04 11.96 -0.79zm-34.84 -254.57l0.61 -39.07 -3 1.12 -3.92 0.76 -0.76 37.91 7.06 -0.72zm7.84 -2.39l0.61 -39.07 -3 1.12 -3.92 0.76 -0.76 37.9 7.06 -0.72zm7.84 -2.39l0.61 -39.06 -3 1.12 -3.92 0.76 -0.76 37.9 7.06 -0.72zm7.84 -2.39l0.61 -39.06 -3 1.12 -3.92 0.76 -0.76 37.9 7.06 -0.72zm-48.04 107.49l0.96 -72 -4.71 2.06 -6.01 1.37 -1.34 69.9 11.1 -1.33zm11.77 -2.58l0.96 -72 -4.71 2.06 -5.64 1.29 -1.7 69.99 11.1 -1.33zm11.77 -2.57l0.96 -72 -4.71 2.06 -6.16 1.4 -1.2 69.87 11.1 -1.33zm11.69 -1.66l0.96 -72 -4.71 2.06 -6.16 1.41 -1.19 69.86 11.1 -1.33zm11.69 -1.65l0.96 -72 -4.71 2.06 -6.16 1.4 -1.2 69.87 11.1 -1.33zm11.69 -1.66l0.96 -72 -4.71 2.06 -6.16 1.41 -1.19 69.86 11.1 -1.33zm-62.47 93l1.04 -43.32 -5.08 1.24 -6.47 0.83 -1.45 42.06 11.96 -0.8zm12.69 -1.55l1.04 -43.33 -5.08 1.24 -6.09 0.77 -1.84 42.11 11.97 -0.79zm12.69 -1.55l1.04 -43.33 -5.08 1.24 -6.64 0.85 -1.29 42.04 11.97 -0.79zm12.6 -1l1.04 -43.33 -5.08 1.24 -6.64 0.85 -1.29 42.04 11.97 -0.79zm12.61 -1l1.04 -43.33 -5.08 1.24 -6.64 0.85 -1.29 42.04 11.97 -0.79zm12.6 -1l1.04 -43.33 -5.08 1.24 -6.64 0.85 -1.29 42.04 11.96 -0.79zm-57.19 153.09l1.04 -43.32 -5.08 1.24 -6.47 0.83 -1.45 42.06 11.96 -0.8zm12.69 -1.55l1.04 -43.32 -5.08 1.24 -6.09 0.77 -1.84 42.11 11.97 -0.8zm12.69 -1.55l1.04 -43.32 -5.08 1.24 -6.64 0.85 -1.29 42.04 11.97 -0.8zm-199.61 -58.71c8.17,1.69 8.35,86.17 -1.44,88.97 -20.35,-3.79 -20.58,14.27 -19.9,-50.86 0.31,-29.92 -5.58,-43.85 21.34,-38.11zm0 -128.2c8.17,1.68 8.35,86.18 -1.44,88.97 -20.35,-3.78 -20.58,14.27 -19.9,-50.86 0.31,-29.92 -5.58,-43.85 21.34,-38.11zm0 -128.2c8.17,1.69 8.35,86.18 -1.44,88.97 -20.35,-3.79 -20.58,14.27 -19.9,-50.86 0.31,-29.91 -5.58,-43.85 21.34,-38.11zm358.22 442.71c2.12,10.38 33.08,37.98 63.48,50.86l-5.92 1.24c55.82,12.95 97.69,38.92 170.67,51.77 86.61,15.25 122.09,-4.41 202.33,2.07 129.95,10.51 278.55,20.05 405.86,44.06 20.44,42.83 -19.46,44.55 51.63,53.79 31.26,4.06 68.71,8.89 99.35,15.6 35.51,7.78 59.73,32.91 83.54,54.67l70.1 55.98 45.76 30.02 26.45 -22.48c5.94,9 9.81,23.82 25.36,34.29l22.76 -25.36c30.76,22.09 -0.89,22.4 42.19,20.69l15.83 -2.42c15.05,-2.9 3.73,5.5 17.38,-4.67 -12.49,-13.34 -90.05,-130.27 -75.33,-164.71 32,4.19 13.84,-3.92 29.38,22.76l67.52 100.6 0.67 -7.73 -49.3 -87.82c-2.25,-24.81 8.83,-21.02 13.89,-24.88 23.86,10.99 9.2,7.89 24.63,23.27 10.97,10.93 3.06,3.89 16.21,12.74 -9.82,-110.12 -1.92,-252.35 -1.97,-366.24 -0.07,-123.94 -0.93,-247.89 -1.42,-371.83 -0.44,-113.82 -12.97,-686.03 3.92,-733.37 -35.1,2.36 -75.17,0.55 -106.85,-14.69l-1.17 -62.12c14.42,-9.55 34.62,-20.09 54.39,-27.9 27.87,-11.01 41.33,-8.89 46.38,-33.3l3.45 -15.92 2.68 -10.59c-56.51,12.92 -137.02,61.85 -193.07,86.42 -31.66,13.88 -60.24,28.42 -93.46,43.19 -15.4,6.85 -32.45,13.19 -47.35,21.25 -24.42,13.21 -23.07,8.08 -24.91,33.7 39.85,20.07 32.75,-19.61 33.21,50.21 -38.68,6.53 -272.28,89.53 -290.09,112.27l57.69 1.97 -1.66 100.1 -130.62 51.5 -3.56 52.74 -137.98 56.15c6.53,5.49 2.62,3.76 15,8.97l48.82 9.44 0.73 62.75c-129.54,-2.49 -81.01,12.27 -248.27,11.68 9.31,-86.04 -9.41,-182.1 2.95,-267 -20.67,7.47 -35.04,10.88 -48.68,12.33l-113.14 0c-1.9,-1.38 -3.98,-3.04 -6.31,-5.12 13.78,-14.26 18.03,-17.88 39.54,-21.32l117.83 1.78c1.66,0.37 3.83,1.2 5.29,1.58 10.18,2.7 4.73,24.3 12.41,4.08 0.41,-1.09 2.29,1.21 5.06,1.75l7.17 -12.27c-7.09,-15.79 2.03,-1.59 -13.68,-12.17 -6.12,-4.11 -6.65,6.72 -10.86,-5.97 -0.92,-2.78 -4.15,-1.77 -6.03,-2.99l14.07 -12.55c20.97,-22.8 -8.7,20.18 5.33,-9.92 -31.93,-7.87 -75.29,-39.11 -101.77,-32.16 -26.3,6.91 -63.68,36.12 -98.21,45.7 14.82,21.23 8.43,6.75 15.95,17.08 6.92,9.52 3.55,-4.98 10.16,18.88 -40.3,12.96 -15.04,0.98 -25.93,21.88 40.97,27.39 28.78,24.38 27.88,87.49l1.58 349.12c-2.4,0.4 -4.85,0.76 -7.34,1.08l-205.96 0 -5.86 14.38c-2.08,1.05 -4.07,2.19 -5.97,3.41l0 -0.1 0 -176.82 200.09 -8.96 0 2.86 12.32 -0.58 -1.25 -2.78 4.98 -0.22 -51.61 -76.34 -86.02 40.86 -130.11 -33.33 -110.75 29.03 -73.12 40.86 21.5 0 -5.38 45.16 -58.06 30.11 -222.57 36.56 -7.53 20.43 8.55 8.55 -1.02 44.14 0 19.35 2.81 -0.3c0.61,6.12 1.53,12.96 2.7,24.99 -74.75,-14.64 -30.96,-14.48 -109.96,-2.53l-5.22 8.37 -4.52 7.24c-27.82,39.44 -20.97,12.01 -33.08,45.5 -2.9,8.04 1.79,6.23 -5.39,22.79 -61.34,19.26 -35.33,-4.3 -53.12,47.97l-213.51 -13.02 -52.1 47.29 -0.87 68.49 -158.76 2.16 -75.1 22.02 0.21 62.33c-161.02,5.77 -343.82,-8.53 -509.15,-9.52l-60.06 0.28 0 14.96 378.41 1.16 0.5 100.55c-65.14,-29.53 -64.16,-49.67 -191,-69.14 -32.14,-4.93 -126.27,-15.27 -187.9,-14.04l0 14.56c147.24,-1.9 237.24,8.83 363.58,74.4 -17.22,13.15 -10.83,1.03 -30.26,-8.96l-102.18 -33.91c-64.51,-15.05 -151.5,-23.01 -231.14,-21.47l0 15c166.11,-3.49 357.05,31.55 376.08,90.54 11.46,35.55 -10.46,78.66 17.86,96.74 32.05,-16.8 187.87,-8.05 212.61,-0.42 2.32,-30.1 -4.38,-63.99 11.43,-81.56 0.61,-80.19 324.71,-128.95 491.39,-66.21 54.75,20.6 88.15,42.01 84.21,118.97l69.7 18.05 67.17 13.36 31.09 8.27c225.36,36.94 426.87,112 656.53,136.83 76.82,8.3 126.58,0.36 197.15,2.29 59.67,1.62 413.47,110.08 504.03,108.58l-42.58 -16.22c-14.36,-3.83 -28.11,-6.94 -42.6,-10.31 -77.77,-18.07 -389.14,-97.34 -433.74,-94.84 -78.11,4.39 -131.75,4.05 -209.9,-5.35 -127.86,-15.37 -444.15,-94.91 -611.77,-131.95 -15,-3.32 -29.42,-5.72 -43.73,-9.21l-44.28 -18.42c58.88,-2.9 97.48,-15.5 152.78,-25.34 70.26,-12.5 90.82,5.77 149.49,23.15l15.18 -42.83 91.02 13.87c18.46,-16.57 20.08,-70.15 88.71,-60.87l23.47 7.04zm99.87 42.59c-7.33,-4.19 -23.18,-12.71 -38.62,-22l-3.43 -91.75c0.03,-38.91 -6.12,-91.04 4.57,-123.84l30.35 -1.35c1.28,2.06 2.62,2.82 3.02,6.4 0.4,3.59 2.24,4.63 2.73,6.41 8.69,31.91 4.57,71.62 4.85,104.79 0.34,40.47 0.68,80.94 1.09,121.42 -1.29,0.56 -3.31,-0.46 -4.56,-0.07zm-56.86 -33.61c-8.88,-6.09 -16.03,-11.87 -18.95,-16.36 -0.07,-0.11 -3.96,-3.8 -7.77,-6.68l-3.87 -284.8c-2.99,-98.28 -1.7,-77.52 27.21,-82.67l3.76 386.25c-0.18,1.73 -0.3,3.13 -0.38,4.26zm-119.47 -601.4l0.6 -38 -2.91 1.18 -3.81 0.88 -0.74 36.88 6.86 -0.94zm-9.71 3.25l0.59 -38.01 -2.91 1.19 -3.8 0.87 -0.74 36.88 6.86 -0.93zm-9.71 3.25l0.6 -38 -2.92 1.19 -3.8 0.87 -0.74 36.88 6.86 -0.93zm-9.7 3.25l0.59 -38 -2.91 1.19 -3.81 0.87 -0.74 36.88 6.86 -0.93zm-9.71 3.25l0.59 -38.01 -2.91 1.19 -3.81 0.87 -0.74 36.88 6.86 -0.93zm-9.7 3.25l0.59 -38.01 -2.91 1.19 -3.82 0.87 -0.74 36.88 6.88 -0.93zm-9.72 3.25l0.59 -38.01 -2.91 1.19 -3.81 0.87 -0.74 36.88 6.87 -0.93zm-9.7 3.25l0.59 -38.01 -2.91 1.19 -3.81 0.87 -0.74 36.88 6.87 -0.93zm-9.96 4.02l0.6 -37.99 -2.92 1.18 -3.81 0.87 -0.74 36.88 6.87 -0.94zm-9.95 4.02l0.6 -38 -2.92 1.19 -3.81 0.87 -0.74 36.88 6.86 -0.94zm-9.96 4.03l0.59 -38 -2.91 1.18 -3.81 0.88 -0.74 36.88 6.86 -0.94zm-9.96 4.02l0.59 -38.01 -2.91 1.18 -3.81 0.88 -0.74 36.88 6.86 -0.93zm-9.62 3.05l0.6 -38.01 -2.91 1.19 -3.49 0.8 -1.05 36.95 6.86 -0.93zm-9.61 3.05l0.6 -38.01 -2.92 1.19 -3.71 0.85 -0.83 36.9 6.86 -0.93zm-1003.01 346.72l44.22 -11.95 146.41 0 0 15.54 -190.64 -3.59zm231.6 -104.31l27.79 -24.21 167.93 7.17 0 15.54 -195.72 1.49zm1154.88 -201.3l-194.2 0.27 30.12 44.39 164.08 -44.66zm-166.7 79.83l82.56 -19.66 4.55 -14.34 -82.54 15.49 -4.57 18.51zm88.64 -4.43l-84.62 20.24 -0.21 9.96c-0.07,3.67 78.91,-15.75 84.07,-17.15l0.76 -13.05zm-90.38 8.25l-0.08 -1.09c-0.23,0.39 -0.45,0.79 -0.66,1.19l0.74 -0.1zm-222.32 -74.94l0 12.08 0.26 137.72 23.49 0c7.14,-0.55 16.16,-1.19 22.08,0l43.73 0 -3.61 -6.02c21.41,-43.89 14.9,-26.32 54.19,-43.58l0 -58.09 17.24 -17.24c1.42,-10.77 2.61,-21.68 3.27,-33.22l2.21 -0.11 -5.52 -159.11 -10.11 0 2.25 73.86 6.45 6.45 0 17.2 -155.93 70.04zm170.32 -195.29l-136.6 -24.47 90.99 -26.44 103.57 26.54 -57.96 24.37zm-158.73 -15.86l-38.12 19.06 -4.3 47.34 49.18 6.15 111.89 -50.42 -118.65 -22.13zm-83.62 97.14l51.26 -7.99 11.57 -11.57 -37 0 -25.82 16.49 0 3.08zm-245.66 55.94l18.8 0 288.34 -44.26 149.4 -55.33 3.44 -22.75 -155.91 67.63 -304.07 46.11 0 8.61zm298.54 -32.58l-74.39 14.14 0 43.65 74.39 -6.77 0 -51.03zm-84.84 13.52l-32.13 4.76 0 41.97 32.13 0 0 -46.73zm-39.96 3.08l-30.13 6.82 0 42.36 30.13 0 0 -49.18zm-37.5 7.99l-22.13 4.3 0 42.42 22.13 -5.53 0 -41.19zm-33.81 4.92l-37.5 5.23 0 40.88 37.5 0 0 -46.11zm-96.52 15.07l-1.23 40.88 46.72 -7.99 0 -41.81 -45.5 8.92zm521.77 100.89l-21.19 -43.3 -31.11 41.66 -0.58 43.81 55.18 -1.42c-0.3,-17.33 -2.53,-33.71 -2.3,-40.76zm1139.64 753.29c6.27,0.72 7.43,7.87 16.59,5.42 -12.56,-28.61 -33.16,-57.87 -49.29,-87.78 -21.01,-38.99 -26.1,-45.22 -84.66,-45.24 -2.19,45.05 20.32,47.38 46.38,68.51 24.45,19.82 47.03,39.51 70.97,59.09zm-1255.61 -641.01l-65.22 0 -28.13 3.1 0.73 353.59 95.44 15 -2.83 -371.69zm-517.84 -119.98l-14.71 20.61c11.92,0.08 21.66,-6.03 44.46,-7.85l0 48.52 17.43 0 0 -61.58c-17.41,0 -21.02,-1.9 -47.17,0.29zm957.81 -489.33l-58.55 0c-5.69,0.31 -11.43,0.4 -17.21,0l-40.15 0c18.72,30.3 0.69,-17.75 1.13,8.41 0.56,33.59 -8.59,-14.69 -1.85,9.64 30.01,-4.7 100.52,3.04 125.59,-14.4 -2.91,-1.54 -5.9,-2.74 -8.96,-3.65zm832.6 1127.29c27.26,2.12 15.38,-6.99 60.95,74.07 17.48,31.08 46.25,57.43 21.85,89.79 -20.03,-23.51 -87.81,-136.28 -82.8,-163.86zm-45.04 -6.72c27.05,9.96 95.05,121.78 86.39,162.72 -27.47,-15.05 -14.41,-2.68 -31.93,-37.41 -7.71,-15.28 -16.81,-32.46 -23.92,-44.7 -15.64,-26.94 -42.48,-53.57 -30.54,-80.61zm-255.99 -16.59c11.58,-7.27 -1.08,-5.67 19.77,-7.69l105.99 15.1c43.17,9.77 23.73,-7.95 26.05,30.54 -26.72,8.49 -89.41,-4.9 -119.36,-11.74 -41.8,-9.54 -24.88,1.27 -32.45,-26.21zm248.53 -22.76c35.3,-16.21 193.48,-1.62 246.07,2.12l1.44 51.16c-30.7,-15.51 -22.3,-16.58 -51.51,4.48 -4.81,-3.38 -15.96,-12.83 -20.81,-14.43 -27.7,-9.16 -15.72,9.19 -40.83,1 -58.94,-19.23 2.68,8.52 -65.14,-8.43 -32.93,-8.24 -24.06,9.91 -54.26,-7.83 -15.34,-9.02 -15.89,12.81 -14.97,-28.07zm-58.59 7.59c-5.64,29.89 5.51,24.07 -103.48,4.02 10.27,-11.05 -4.96,-15.45 46.77,-13.57l56.71 9.55zm277.36 -109.82c19.91,12.46 15.11,-17.13 14.56,56.71 -0.81,47.02 4.67,22.29 -14.56,33.98 -4.4,-7.18 -5.74,-3.84 -8.63,-18.69 -4.46,-22.87 -3.3,-53.37 8.63,-71.99zm-53.12 0.1c23.96,6.48 16.09,-3.38 17.67,33.14 2.21,51.3 -3.33,46.09 -10.07,55.69 -20.08,-13 -13.78,-1.73 -14.24,-39.52 -0.25,-20.51 -2.36,-35.19 6.65,-49.31zm-53.12 -0.84l18.68 0.22c2.79,27.23 5.5,67.27 -3.5,86.72 -25.23,-5.68 -18.44,-0.04 -18.29,-36.66 0.07,-16.93 -1,-35.63 3.11,-50.28zm-52.88 -2.07c29.98,2.99 23.16,-5.56 23.7,36.27 0.52,40.42 0.87,38.86 -8.76,51.53 -21.3,-8.5 -14.91,2.45 -15.47,-35.23 -0.25,-16.97 0.54,-35.32 0.53,-52.57zm-45.77 -1.95c23.23,5.53 18.22,-4.46 18.97,30.46 0.36,16.53 -0.55,39.2 -1.79,55.64l-20.01 1.83c-3.66,-27.72 -5.34,-67.28 2.83,-87.93zm-176.83 1.75l105.07 1.5 -0.02 92.79 -102.22 -5.59 -2.83 -88.71zm-404.08 -641.67c24.66,-9.04 37,-13.88 60.47,-9.32l7.9 721.97 -68.02 -5.51 -0.35 -707.13zm-85.46 15.64l70.91 -12.92 1.75 703.22 -63.89 -5.33 -8.77 -684.98zm-85.15 25.62l72.69 -17.55 8.51 677.48 -77.01 -8.72 -4.19 -651.21zm-140.47 -27.4l127.48 -34.04 2.99 699.17c-3.2,18.84 -2.71,14.07 -6.09,21.78 -156.24,20.37 -125.97,-27.34 -125.36,-75.1 2.38,-185.37 -9.4,-448.7 0.98,-611.81zm-109.82 411.1l96.41 -1.28 -0.2 269.63 -94.97 -27.5 -1.24 -240.85zm813.6 330.53l-73.47 -12.44 -1.22 -130.06 236.12 8.78 0.55 126.27c-7.06,60.21 9.84,21.28 -19.3,34.49 -19.66,-17.3 -7.81,4.98 -12.87,-27.9l-1.42 -121.8 -127.04 -4.84 -1.35 127.5zm267.89 -1105.91l148.67 -39 -9.33 1003.4c-36.41,6.51 -100.5,-0.04 -140.19,-0.25l0.85 -964.15zm-100.55 -147.15c24.55,-15.89 56.84,-27.64 88.24,-32.24l-0.36 1139.76 -81.37 -0.59 -6.51 -1106.93zm-2515.74 975.83l203.72 4.41 3.43 129.19 -202.47 -5.6 -4.68 -127.99zm2273.64 -39.09l234.77 0.6 0.26 168.94 -231.25 -8.01 -3.78 -161.53zm-956.71 174.3l-3.3 -374.94 102.34 -4.07 9.44 355.65c-61.17,-12.09 -70.6,6.24 -108.47,23.36zm-411.26 -116.97l-1.7 -198.11 54.64 -0.31c-0.49,53.39 0.57,107.01 1.15,160.48 0.3,27.83 0.32,55.79 0.94,83.59 0.81,36.07 5.53,59.01 -10.07,72.09 -14.44,-35.57 -1.35,-72.26 -20.89,-97.65 -8.35,-10.85 -1.57,-1.82 -12.17,-10.76l-11.91 -9.33zm-14.82 -278.84l2.86 289.51 -50.62 -3.85 -2.81 -243.18c2.98,-42.86 2.09,-31.28 50.57,-42.48zm-129.77 34.3l67.42 -17.65 -0.26 264.76 -67.9 -1.01 0.74 -246.1zm-189.93 69.78l177.8 -41.74 -1.5 148.2 -0.91 67.39 -169.34 -9.7 -6.05 -164.15zm-112.93 38.76l100.62 -15.13 2.26 140.53 -95.98 -5.02 -6.9 -120.38zm-194.86 57.3l147.85 -1.13 0.06 58.74 -148.08 -4.13 0.17 -53.48zm-73.25 -1.58l59.02 0.29 0.28 55.21 -60.12 -2.14 0.82 -53.36zm2316.68 -166.77l0.3 176.72 -231.87 0.19c-1.93,-34.01 -0.51,-65.73 -0.99,-97.11 -0.84,-55.36 -13.29,-62.83 34.04,-67.65 53.2,-5.43 145.85,-14.58 198.51,-12.14zm-975.14 -114.55l96.28 -29.13 0.96 303.11 -92.67 3.13 -4.57 -277.11zm-11.02 67.63l0.57 193.8 -43.03 -0.64c-2.01,-37.7 -0.6,-74.81 -1.05,-111.78 -0.74,-61.45 -13.85,-66.07 43.52,-81.37zm-1075.45 149.62l2.52 60.85 6.29 60.66 -29.97 0.3 -0.57 -68.53c0.41,-30.78 -1.04,-60.48 1.67,-91.1l132.95 -6.04 -1.81 25.46 -111.09 18.4zm1582.79 -553.77c26.91,-17.71 204.26,-82.03 233.8,-85.16l-0.32 1026.04 -222.19 -26.1 -11.29 -914.78zm-1124.95 329.45l54.3 -4.89 0.8 165.41 -55.26 0.9 0.16 -161.42zm-207.99 147.33c4.66,-28.66 7.8,-26.08 40.98,-28.75 -2.11,29.78 -4.26,29.72 -40.98,28.75zm1578.69 -23.11l0.39 -163.38 231.25 -27.09 -0.15 173.05 -231.49 17.42zm-1523 -10.37l-2.52 -46.77 59.6 -11.87 -1.33 40.32 -55.75 18.31zm91.39 -25.73l-1.33 -65.82 47.26 13.29 1.53 37.12 -47.46 15.42zm1431.49 -138.18l0.68 -169.04 229.37 -33.82 1.42 171.7 -231.48 31.16zm-488.99 -49.18l0.6 -48.12 71.43 -22.57 0.83 48.72 -72.85 21.96zm86.92 -32.93c8.78,-22.52 121.27,-44.09 121.29,-44.09 20.05,-0.87 15.34,1.66 24.02,6.14 -12.91,21.21 16.45,9.55 -72.89,29.27 -30.05,6.63 -52.93,21.3 -72.42,8.67zm-227.99 3.76l-0.27 -106.17 111.85 1.45 -0.9 76.14 -110.69 28.59zm226.69 -33.08c6.86,-32.38 30.52,-40.49 51.74,-60.37l92.04 2.71c-2.11,38.2 18.44,18.07 -62.89,39.84 -27.51,7.36 -52.32,14.99 -80.9,17.82zm-102.24 -0.6l0.09 -46.53c52.76,-0.4 87.78,-7.91 112.61,12.02 -25.65,16.2 -72.06,27.22 -112.7,34.5zm506.74 -72.22l-0.28 -186.22c51.9,-38.37 163.49,-62.65 223.35,-37.9 19.94,40.52 5.64,135.75 6.72,189.34 -41.66,11.26 -194.81,39.14 -229.79,34.77zm-612.42 -79.98c0.09,33.65 4.41,48.01 -5.93,66.88 -15.22,-8.46 -10.69,6.29 -10.71,-28.94l-0.46 -154.83 107.46 -7.16 2.05 155.15c-0.21,39.16 5.94,26.97 -14.86,36.53 -33.47,-20.96 1.94,-112.42 -14.18,-150.46 -10.01,-23.66 -46.45,-29.64 -59.45,-6.18 -7.97,14.37 -3.95,69.47 -3.91,89zm442.77 -65.69c0.53,-47.6 -16.84,-31.45 73.73,-64.5 141.01,-51.47 206.35,-100.52 323.92,-70.36l0.16 37.49c-115.89,8.26 -89.51,-14.02 -205.18,30.2 -43.52,16.64 -152.19,62.83 -192.62,67.17zm380.41 -268.2c25.69,-16.82 90.09,-34.93 124.51,-48.24 49.29,-19.07 102.11,-32.23 148.11,-4.27l5.72 166.31 -146.99 46.28 -0.81 -184.69c-44.63,-3.07 -89.12,44.8 -130.55,24.61zm248.65 -74.77c-62.85,3.25 -54.84,-20.03 -56.76,-23.88 1.97,-0.87 4.49,-2.1 6,-2.44l38.09 -0.59c32.9,4.97 24.75,-0.53 39.8,18.21 -15.62,9.8 14.72,6.54 -27.13,8.7zm-70.94 -28.97c-0.17,32.75 -4.63,25.22 -40.89,37.36 -52.63,17.61 -132.63,53.68 -179.99,62.44 15.24,18.05 -1.74,3.17 16.12,12.69 37.42,19.92 34.3,-5.53 43.95,23.77 1.76,5.35 1.05,69.27 1.36,80.95 -66.8,7.24 -67.94,-20.96 -141.43,8.09 -40.83,16.14 -82.1,34.72 -123.95,44.43l-0.87 -116.4 425.69 -153.34zm-193.1 4.53c38.76,-17.67 157.29,-77.31 192.99,-82.16l1.6 60.98 -194.72 68.48 0.13 -47.3z"/>
   <path class="fil1" d="M153.49 1591.71c-29,7.02 -33.46,39.58 -56.62,80.92 -19.1,34.09 -47.64,57.79 -23.64,87.32 18.13,-20.03 35.65,-55.12 51.27,-82.23 16.89,-29.33 53.37,-58.95 28.99,-86.01zm2012.63 -271.38c-8,4.79 2.75,1.43 -20.33,9.98 -28.27,10.47 -132.68,21.9 -164.02,87.39 -26.13,54.6 12.8,57.6 -69.32,58.87 10.31,-111.39 137.79,-150.51 253.67,-156.24zm-1083.62 -795.1c15.74,23.38 9.26,48.72 9.49,84.31 0.54,86.8 0.19,60.41 -17.08,64.95 -7.68,-22.51 -3.44,-54.67 -3.6,-80.17 -0.61,-96.58 -2,-58.59 11.19,-69.08zm606.02 818.23c6.65,1.37 8,57.61 3,79.99 9.38,-0.65 18.85,-1.39 28.21,-2.19 -4.46,-23.64 -3,-76.47 3.45,-77.8 26.92,-5.74 21.03,8.19 21.34,38.11 0.19,18.25 0.31,29.97 -0.07,37.46 26.12,-2.47 49.72,-5 65.76,-6.39l3.93 -491.99 -225.1 -15.81 0 12.39 -0.02 0 -0.88 504.24c16.05,4.7 46.02,5 79.6,3.37 -0.95,-6.69 -0.82,-19.37 -0.57,-43.28 0.31,-29.92 -5.58,-43.85 21.34,-38.11zm-1.26 88.9l-0.18 0.07 -0.42 -0.07c-45.5,0.15 -86.27,2.93 -99.24,19.47 12.45,20.75 -10.27,16.93 26.7,10.26 6.97,-1.26 24.07,-9.23 35.28,-12.13 75.24,-19.51 149.14,22.35 245.06,24.14 29.9,-75.41 31.46,-93.37 99.99,-127.05 171.42,-84.22 427.19,-38.49 567.38,43.8l2.12 -112.31c-106.35,4.61 -647.44,16.07 -699.91,45.45l-13.67 76.19c-11.93,40.89 15.64,-35 -4.51,11.47 -11.34,26.16 -90.21,20.51 -158.61,20.71zm-137.83 -480.32l-0.61 -39.06 3 1.12 3.82 0.74 0.86 37.92 -7.06 -0.72zm139.1 263.22c8.17,1.69 8.35,86.17 -1.44,88.97 -20.35,-3.79 -20.58,14.27 -19.9,-50.86 0.31,-29.92 -5.58,-43.85 21.34,-38.11zm0 -128.2c8.17,1.68 8.35,86.18 -1.44,88.97 -20.35,-3.78 -20.58,14.27 -19.9,-50.86 0.31,-29.92 -5.58,-43.85 21.34,-38.11zm0 -128.2c8.17,1.69 8.35,86.18 -1.44,88.97 -20.35,-3.79 -20.58,14.27 -19.9,-50.86 0.31,-29.91 -5.58,-43.85 21.34,-38.11zm-146.59 -8.22l-0.61 -39.06 3 1.12 3.6 0.7 1.08 37.97 -7.06 -0.72zm-7.49 -1.4l-0.61 -39.06 3 1.12 3.92 0.76 0.76 37.91 -7.06 -0.72zm20.52 258.26l-1.04 -43.32 5.08 1.24 6.47 0.83 1.45 42.06 -11.96 -0.8zm-12.69 -1.55l-1.04 -43.33 5.08 1.24 6.09 0.77 1.84 42.11 -11.97 -0.79zm-12.69 -1.55l-1.04 -43.33 5.08 1.24 6.64 0.85 1.29 42.04 -11.97 -0.79zm19.38 145.02l-1.04 -43.32 5.08 1.24 6.47 0.83 1.45 42.06 -11.96 -0.8zm-12.69 -1.55l-1.04 -43.32 5.08 1.24 6.09 0.77 1.84 42.11 -11.97 -0.8zm-12.69 -1.55l-1.04 -43.32 5.08 1.24 6.64 0.85 1.29 42.04 -11.97 -0.8zm25.39 70.19l-1.04 -43.33 5.08 1.24 6.47 0.83 1.45 42.06 -11.96 -0.79zm-12.69 -1.55l-1.04 -43.33 5.08 1.24 6.09 0.77 1.84 42.11 -11.97 -0.79zm-12.69 -1.55l-1.04 -43.33 5.08 1.24 6.64 0.85 1.29 42.04 -11.97 -0.79zm-6.6 -210.01l-1.04 -43.33 5.08 1.24 6.64 0.85 1.29 42.04 -11.97 -0.79zm-12.61 -1l-1.04 -43.33 5.08 1.24 6.64 0.85 1.29 42.04 -11.97 -0.79zm-12.6 -1l-1.04 -43.33 5.08 1.24 6.64 0.85 1.29 42.04 -11.96 -0.79zm34.84 -254.57l-0.61 -39.07 3 1.12 3.92 0.76 0.76 37.91 -7.06 -0.72zm-7.84 -2.39l-0.61 -39.07 3 1.12 3.92 0.76 0.76 37.9 -7.06 -0.72zm-7.84 -2.39l-0.61 -39.06 3 1.12 3.92 0.76 0.76 37.9 -7.06 -0.72zm-7.84 -2.39l-0.61 -39.06 3 1.12 3.92 0.76 0.76 37.9 -7.06 -0.72zm48.04 107.49l-0.96 -72 4.71 2.06 6.01 1.37 1.34 69.9 -11.1 -1.33zm-11.77 -2.58l-0.96 -72 4.71 2.06 5.64 1.29 1.7 69.99 -11.1 -1.33zm-11.77 -2.57l-0.96 -72 4.71 2.06 6.16 1.4 1.2 69.87 -11.1 -1.33zm-11.69 -1.66l-0.96 -72 4.71 2.06 6.16 1.41 1.19 69.86 -11.1 -1.33zm-11.69 -1.65l-0.96 -72 4.71 2.06 6.16 1.4 1.2 69.87 -11.1 -1.33zm-11.69 -1.66l-0.96 -72 4.71 2.06 6.16 1.41 1.19 69.86 -11.1 -1.33zm62.47 93l-1.04 -43.32 5.08 1.24 6.47 0.83 1.45 42.06 -11.96 -0.8zm-12.69 -1.55l-1.04 -43.33 5.08 1.24 6.09 0.77 1.84 42.11 -11.97 -0.79zm-12.69 -1.55l-1.04 -43.33 5.08 1.24 6.64 0.85 1.29 42.04 -11.97 -0.79zm-12.6 -1l-1.04 -43.33 5.08 1.24 6.64 0.85 1.29 42.04 -11.97 -0.79zm-12.61 -1l-1.04 -43.33 5.08 1.24 6.64 0.85 1.29 42.04 -11.97 -0.79zm-12.6 -1l-1.04 -43.33 5.08 1.24 6.64 0.85 1.29 42.04 -11.96 -0.79zm57.19 153.09l-1.04 -43.32 5.08 1.24 6.47 0.83 1.45 42.06 -11.96 -0.8zm-12.69 -1.55l-1.04 -43.32 5.08 1.24 6.09 0.77 1.84 42.11 -11.97 -0.8zm-12.69 -1.55l-1.04 -43.32 5.08 1.24 6.64 0.85 1.29 42.04 -11.97 -0.8zm199.61 -58.71c-8.17,1.69 -8.35,86.17 1.44,88.97 20.35,-3.79 20.58,14.27 19.9,-50.86 -0.31,-29.92 5.58,-43.85 -21.34,-38.11zm0 -128.2c-8.17,1.68 -8.35,86.18 1.44,88.97 20.35,-3.78 20.58,14.27 19.9,-50.86 -0.31,-29.92 5.58,-43.85 -21.34,-38.11zm0 -128.2c-8.17,1.69 -8.35,86.18 1.44,88.97 20.35,-3.79 20.58,14.27 19.9,-50.86 -0.31,-29.91 5.58,-43.85 -21.34,-38.11zm-358.22 442.71c-2.12,10.38 -33.08,37.98 -63.48,50.86l5.92 1.24c-55.82,12.95 -97.69,38.92 -170.67,51.77 -86.61,15.25 -122.09,-4.41 -202.33,2.07 -129.95,10.51 -278.55,20.05 -405.86,44.06 -20.44,42.83 19.46,44.55 -51.63,53.79 -31.26,4.06 -68.71,8.89 -99.35,15.6 -35.51,7.78 -59.73,32.91 -83.54,54.67l-70.1 55.98 -45.76 30.02 -26.45 -22.48c-5.94,9 -9.81,23.82 -25.36,34.29l-22.76 -25.36c-30.76,22.09 0.89,22.4 -42.19,20.69l-15.83 -2.42c-15.05,-2.9 -3.73,5.5 -17.38,-4.67 12.49,-13.34 90.05,-130.27 75.33,-164.71 -32,4.19 -13.84,-3.92 -29.38,22.76l-67.52 100.6 -0.67 -7.73 49.3 -87.82c2.25,-24.81 -8.83,-21.02 -13.89,-24.88 -23.86,10.99 -9.2,7.89 -24.63,23.27 -10.97,10.93 -3.06,3.89 -16.21,12.74 9.82,-110.12 1.92,-252.35 1.97,-366.24 0.07,-123.94 0.93,-247.89 1.42,-371.83 0.44,-113.82 12.97,-686.03 -3.92,-733.37 35.1,2.36 75.17,0.55 106.85,-14.69l1.17 -62.12c-14.42,-9.55 -34.62,-20.09 -54.39,-27.9 -27.87,-11.01 -41.33,-8.89 -46.38,-33.3l-3.45 -15.92 -2.68 -10.59c56.51,12.92 137.02,61.85 193.07,86.42 31.66,13.88 60.24,28.42 93.46,43.19 15.4,6.85 32.45,13.19 47.35,21.25 24.42,13.21 23.07,8.08 24.91,33.7 -39.85,20.07 -32.75,-19.61 -33.21,50.21 38.68,6.53 272.28,89.53 290.09,112.27l-57.69 1.97 1.66 100.1 130.62 51.5 3.56 52.74 137.98 56.15c-6.53,5.49 -2.62,3.76 -15,8.97l-48.82 9.44 -0.73 62.75c129.54,-2.49 81.01,12.27 248.27,11.68 -9.31,-86.04 9.41,-182.1 -2.95,-267 20.67,7.47 35.04,10.88 48.68,12.33l113.14 0c1.9,-1.38 3.98,-3.04 6.31,-5.12 -13.78,-14.26 -18.03,-17.88 -39.54,-21.32l-117.83 1.78c-1.66,0.37 -3.83,1.2 -5.29,1.58 -10.18,2.7 -4.73,24.3 -12.41,4.08 -0.41,-1.09 -2.29,1.21 -5.06,1.75l-7.17 -12.27c7.09,-15.79 -2.03,-1.59 13.68,-12.17 6.12,-4.11 6.65,6.72 10.86,-5.97 0.92,-2.78 4.15,-1.77 6.03,-2.99l-14.07 -12.55c-20.97,-22.8 8.7,20.18 -5.33,-9.92 31.93,-7.87 75.29,-39.11 101.77,-32.16 26.3,6.91 63.68,36.12 98.21,45.7 -14.82,21.23 -8.43,6.75 -15.95,17.08 -6.92,9.52 -3.55,-4.98 -10.16,18.88 40.3,12.96 15.04,0.98 25.93,21.88 -40.97,27.39 -28.78,24.38 -27.88,87.49l-1.58 349.12c2.4,0.4 4.85,0.76 7.34,1.08l205.96 0 5.86 14.38c2.08,1.05 4.07,2.19 5.97,3.41l0 -0.1 0 -176.82 -200.09 -8.96 0 2.86 -12.32 -0.58 1.25 -2.78 -4.98 -0.22 51.61 -76.34 86.02 40.86 130.11 -33.33 110.75 29.03 73.12 40.86 -21.5 0 5.38 45.16 58.06 30.11 222.57 36.56 7.53 20.43 -8.55 8.55 1.02 44.14 0 19.35 -2.81 -0.3c-0.61,6.12 -1.53,12.96 -2.7,24.99 74.75,-14.64 30.96,-14.48 109.96,-2.53l5.22 8.37 4.52 7.24c27.82,39.44 20.97,12.01 33.08,45.5 2.9,8.04 -1.79,6.23 5.39,22.79 61.34,19.26 35.33,-4.3 53.12,47.97l213.51 -13.02 52.1 47.29 0.87 68.49 158.76 2.16 75.1 22.02 -0.21 62.33c161.02,5.77 343.82,-8.53 509.15,-9.52l60.06 0.28 0 14.96 -378.41 1.16 -0.5 100.55c65.14,-29.53 64.16,-49.67 191,-69.14 32.14,-4.93 126.27,-15.27 187.9,-14.04l0 14.56c-147.24,-1.9 -237.24,8.83 -363.58,74.4 17.22,13.15 10.83,1.03 30.26,-8.96l102.18 -33.91c64.51,-15.05 151.5,-23.01 231.14,-21.47l0 15c-166.11,-3.49 -357.05,31.55 -376.08,90.54 -11.46,35.55 10.46,78.66 -17.86,96.74 -32.05,-16.8 -187.87,-8.05 -212.61,-0.42 -2.32,-30.1 4.38,-63.99 -11.43,-81.56 -0.61,-80.19 -324.71,-128.95 -491.39,-66.21 -54.75,20.6 -88.15,42.01 -84.21,118.97l-69.7 18.05 -67.17 13.36 -31.09 8.27c-225.36,36.94 -426.87,112 -656.53,136.83 -76.82,8.3 -126.58,0.36 -197.15,2.29 -59.67,1.62 -413.47,110.08 -504.03,108.58l42.58 -16.22c14.36,-3.83 28.11,-6.94 42.6,-10.31 77.77,-18.07 389.14,-97.34 433.74,-94.84 78.11,4.39 131.75,4.05 209.9,-5.35 127.86,-15.37 444.15,-94.91 611.77,-131.95 15,-3.32 29.42,-5.72 43.73,-9.21l44.28 -18.42c-58.88,-2.9 -97.48,-15.5 -152.78,-25.34 -70.26,-12.5 -90.82,5.77 -149.49,23.15l-15.18 -42.83 -91.02 13.87c-18.46,-16.57 -20.08,-70.15 -88.71,-60.87l-23.47 7.04zm-99.87 42.59c7.33,-4.19 23.18,-12.71 38.62,-22l3.43 -91.75c-0.03,-38.91 6.12,-91.04 -4.57,-123.84l-30.35 -1.35c-1.28,2.06 -2.62,2.82 -3.02,6.4 -0.4,3.59 -2.24,4.63 -2.73,6.41 -8.69,31.91 -4.57,71.62 -4.85,104.79 -0.34,40.47 -0.68,80.94 -1.09,121.42 1.29,0.56 3.31,-0.46 4.56,-0.07zm56.86 -33.61c8.88,-6.09 16.03,-11.87 18.95,-16.36 0.07,-0.11 3.96,-3.8 7.77,-6.68l3.87 -284.8c2.99,-98.28 1.7,-77.52 -27.21,-82.67l-3.76 386.25c0.18,1.73 0.3,3.13 0.38,4.26zm119.47 -601.4l-0.6 -38 2.91 1.18 3.81 0.88 0.74 36.88 -6.86 -0.94zm9.71 3.25l-0.59 -38.01 2.91 1.19 3.8 0.87 0.74 36.88 -6.86 -0.93zm9.71 3.25l-0.6 -38 2.92 1.19 3.8 0.87 0.74 36.88 -6.86 -0.93zm9.7 3.25l-0.59 -38 2.91 1.19 3.81 0.87 0.74 36.88 -6.86 -0.93zm9.71 3.25l-0.59 -38.01 2.91 1.19 3.81 0.87 0.74 36.88 -6.86 -0.93zm9.7 3.25l-0.59 -38.01 2.91 1.19 3.82 0.87 0.74 36.88 -6.88 -0.93zm9.72 3.25l-0.59 -38.01 2.91 1.19 3.81 0.87 0.74 36.88 -6.87 -0.93zm9.7 3.25l-0.59 -38.01 2.91 1.19 3.81 0.87 0.74 36.88 -6.87 -0.93zm9.96 4.02l-0.6 -37.99 2.92 1.18 3.81 0.87 0.74 36.88 -6.87 -0.94zm9.95 4.02l-0.6 -38 2.92 1.19 3.81 0.87 0.74 36.88 -6.86 -0.94zm9.96 4.03l-0.59 -38 2.91 1.18 3.81 0.88 0.74 36.88 -6.86 -0.94zm9.96 4.02l-0.59 -38.01 2.91 1.18 3.81 0.88 0.74 36.88 -6.86 -0.93zm9.62 3.05l-0.6 -38.01 2.91 1.19 3.49 0.8 1.05 36.95 -6.86 -0.93zm9.61 3.05l-0.6 -38.01 2.92 1.19 3.71 0.85 0.83 36.9 -6.86 -0.93zm1003.01 346.72l-44.22 -11.95 -146.41 0 0 15.54 190.64 -3.59zm-231.6 -104.31l-27.79 -24.21 -167.93 7.17 0 15.54 195.72 1.49zm-1154.88 -201.3l194.2 0.27 -30.12 44.39 -164.08 -44.66zm166.7 79.83l-82.56 -19.66 -4.55 -14.34 82.54 15.49 4.57 18.51zm-88.64 -4.43l84.62 20.24 0.21 9.96c0.07,3.67 -78.91,-15.75 -84.07,-17.15l-0.76 -13.05zm90.38 8.25l0.08 -1.09c0.23,0.39 0.45,0.79 0.66,1.19l-0.74 -0.1zm222.32 -74.94l0 12.08 -0.26 137.72 -23.49 0c-7.14,-0.55 -16.16,-1.19 -22.08,0l-43.73 0 3.61 -6.02c-21.41,-43.89 -14.9,-26.32 -54.19,-43.58l0 -58.09 -17.24 -17.24c-1.42,-10.77 -2.61,-21.68 -3.27,-33.22l-2.21 -0.11 5.52 -159.11 10.11 0 -2.25 73.86 -6.45 6.45 0 17.2 155.93 70.04zm-170.32 -195.29l136.6 -24.47 -90.99 -26.44 -103.57 26.54 57.96 24.37zm158.73 -15.86l38.12 19.06 4.3 47.34 -49.18 6.15 -111.89 -50.42 118.65 -22.13zm83.62 97.14l-51.26 -7.99 -11.57 -11.57 37 0 25.82 16.49 0 3.08zm245.66 55.94l-18.8 0 -288.34 -44.26 -149.4 -55.33 -3.44 -22.75 155.91 67.63 304.07 46.11 0 8.61zm-298.54 -32.58l74.39 14.14 0 43.65 -74.39 -6.77 0 -51.03zm84.84 13.52l32.13 4.76 0 41.97 -32.13 0 0 -46.73zm39.96 3.08l30.13 6.82 0 42.36 -30.13 0 0 -49.18zm37.5 7.99l22.13 4.3 0 42.42 -22.13 -5.53 0 -41.19zm33.81 4.92l37.5 5.23 0 40.88 -37.5 0 0 -46.11zm96.52 15.07l1.23 40.88 -46.72 -7.99 0 -41.81 45.5 8.92zm-521.77 100.89l21.19 -43.3 31.11 41.66 0.58 43.81 -55.18 -1.42c0.3,-17.33 2.53,-33.71 2.3,-40.76zm-1139.64 753.29c-6.27,0.72 -7.43,7.87 -16.59,5.42 12.56,-28.61 33.16,-57.87 49.29,-87.78 21.01,-38.99 26.1,-45.22 84.66,-45.24 2.19,45.05 -20.32,47.38 -46.38,68.51 -24.45,19.82 -47.03,39.51 -70.97,59.09zm1255.61 -641.01l65.22 0 28.13 3.1 -0.73 353.59 -95.44 15 2.83 -371.69zm517.84 -119.98l14.71 20.61c-11.92,0.08 -21.66,-6.03 -44.46,-7.85l0 48.52 -17.43 0 0 -61.58c17.41,0 21.02,-1.9 47.17,0.29zm-957.81 -489.33l58.55 0c5.69,0.31 11.43,0.4 17.21,0l40.15 0c-18.72,30.3 -0.69,-17.75 -1.13,8.41 -0.56,33.59 8.59,-14.69 1.85,9.64 -30.01,-4.7 -100.52,3.04 -125.59,-14.4 2.91,-1.54 5.9,-2.74 8.96,-3.65zm-832.6 1127.29c-27.26,2.12 -15.38,-6.99 -60.95,74.07 -17.48,31.08 -46.25,57.43 -21.85,89.79 20.03,-23.51 87.81,-136.28 82.8,-163.86zm45.04 -6.72c-27.05,9.96 -95.05,121.78 -86.39,162.72 27.47,-15.05 14.41,-2.68 31.93,-37.41 7.71,-15.28 16.81,-32.46 23.92,-44.7 15.64,-26.94 42.48,-53.57 30.54,-80.61zm255.99 -16.59c-11.58,-7.27 1.08,-5.67 -19.77,-7.69l-105.99 15.1c-43.17,9.77 -23.73,-7.95 -26.05,30.54 26.72,8.49 89.41,-4.9 119.36,-11.74 41.8,-9.54 24.88,1.27 32.45,-26.21zm-248.53 -22.76c-35.3,-16.21 -193.48,-1.62 -246.07,2.12l-1.44 51.16c30.7,-15.51 22.3,-16.58 51.51,4.48 4.81,-3.38 15.96,-12.83 20.81,-14.43 27.7,-9.16 15.72,9.19 40.83,1 58.94,-19.23 -2.68,8.52 65.14,-8.43 32.93,-8.24 24.06,9.91 54.26,-7.83 15.34,-9.02 15.89,12.81 14.97,-28.07zm58.59 7.59c5.64,29.89 -5.51,24.07 103.48,4.02 -10.27,-11.05 4.96,-15.45 -46.77,-13.57l-56.71 9.55zm-277.36 -109.82c-19.91,12.46 -15.11,-17.13 -14.56,56.71 0.81,47.02 -4.67,22.29 14.56,33.98 4.4,-7.18 5.74,-3.84 8.63,-18.69 4.46,-22.87 3.3,-53.37 -8.63,-71.99zm53.12 0.1c-23.96,6.48 -16.09,-3.38 -17.67,33.14 -2.21,51.3 3.33,46.09 10.07,55.69 20.08,-13 13.78,-1.73 14.24,-39.52 0.25,-20.51 2.36,-35.19 -6.65,-49.31zm53.12 -0.84l-18.68 0.22c-2.79,27.23 -5.5,67.27 3.5,86.72 25.23,-5.68 18.44,-0.04 18.29,-36.66 -0.07,-16.93 1,-35.63 -3.11,-50.28zm52.88 -2.07c-29.98,2.99 -23.16,-5.56 -23.7,36.27 -0.52,40.42 -0.87,38.86 8.76,51.53 21.3,-8.5 14.91,2.45 15.47,-35.23 0.25,-16.97 -0.54,-35.32 -0.53,-52.57zm45.77 -1.95c-23.23,5.53 -18.22,-4.46 -18.97,30.46 -0.36,16.53 0.55,39.2 1.79,55.64l20.01 1.83c3.66,-27.72 5.34,-67.28 -2.83,-87.93zm176.83 1.75l-105.07 1.5 0.02 92.79 102.22 -5.59 2.83 -88.71zm404.08 -641.67c-24.66,-9.04 -37,-13.88 -60.47,-9.32l-7.9 721.97 68.02 -5.51 0.35 -707.13zm85.46 15.64l-70.91 -12.92 -1.75 703.22 63.89 -5.33 8.77 -684.98zm85.15 25.62l-72.69 -17.55 -8.51 677.48 77.01 -8.72 4.19 -651.21zm140.47 -27.4l-127.48 -34.04 -2.99 699.17c3.2,18.84 2.71,14.07 6.09,21.78 156.24,20.37 125.97,-27.34 125.36,-75.1 -2.38,-185.37 9.4,-448.7 -0.98,-611.81zm109.82 411.1l-96.41 -1.28 0.2 269.63 94.97 -27.5 1.24 -240.85zm-813.6 330.53l73.47 -12.44 1.22 -130.06 -236.12 8.78 -0.55 126.27c7.06,60.21 -9.84,21.28 19.3,34.49 19.66,-17.3 7.81,4.98 12.87,-27.9l1.42 -121.8 127.04 -4.84 1.35 127.5zm-267.89 -1105.91l-148.67 -39 9.33 1003.4c36.41,6.51 100.5,-0.04 140.19,-0.25l-0.85 -964.15zm100.55 -147.15c-24.55,-15.89 -56.84,-27.64 -88.24,-32.24l0.36 1139.76 81.37 -0.59 6.51 -1106.93zm2515.74 975.83l-203.72 4.41 -3.43 129.19 202.47 -5.6 4.68 -127.99zm-2273.64 -39.09l-234.77 0.6 -0.26 168.94 231.25 -8.01 3.78 -161.53zm956.71 174.3l3.3 -374.94 -102.34 -4.07 -9.44 355.65c61.17,-12.09 70.6,6.24 108.47,23.36zm411.26 -116.97l1.7 -198.11 -54.64 -0.31c0.49,53.39 -0.57,107.01 -1.15,160.48 -0.3,27.83 -0.32,55.79 -0.94,83.59 -0.81,36.07 -5.53,59.01 10.07,72.09 14.44,-35.57 1.35,-72.26 20.89,-97.65 8.35,-10.85 1.57,-1.82 12.17,-10.76l11.91 -9.33zm14.82 -278.84l-2.86 289.51 50.62 -3.85 2.81 -243.18c-2.98,-42.86 -2.09,-31.28 -50.57,-42.48zm129.77 34.3l-67.42 -17.65 0.26 264.76 67.9 -1.01 -0.74 -246.1zm189.93 69.78l-177.8 -41.74 1.5 148.2 0.91 67.39 169.34 -9.7 6.05 -164.15zm112.93 38.76l-100.62 -15.13 -2.26 140.53 95.98 -5.02 6.9 -120.38zm194.86 57.3l-147.85 -1.13 -0.06 58.74 148.08 -4.13 -0.17 -53.48zm73.25 -1.58l-59.02 0.29 -0.28 55.21 60.12 -2.14 -0.82 -53.36zm-2316.68 -166.77l-0.3 176.72 231.87 0.19c1.93,-34.01 0.51,-65.73 0.99,-97.11 0.84,-55.36 13.29,-62.83 -34.04,-67.65 -53.2,-5.43 -145.85,-14.58 -198.51,-12.14zm975.14 -114.55l-96.28 -29.13 -0.96 303.11 92.67 3.13 4.57 -277.11zm11.02 67.63l-0.57 193.8 43.03 -0.64c2.01,-37.7 0.6,-74.81 1.05,-111.78 0.74,-61.45 13.85,-66.07 -43.52,-81.37zm1075.45 149.62l-2.52 60.85 -6.29 60.66 29.97 0.3 0.57 -68.53c-0.41,-30.78 1.04,-60.48 -1.67,-91.1l-132.95 -6.04 1.81 25.46 111.09 18.4zm-1582.79 -553.77c-26.91,-17.71 -204.26,-82.03 -233.8,-85.16l0.32 1026.04 222.19 -26.1 11.29 -914.78zm1124.95 329.45l-54.3 -4.89 -0.8 165.41 55.26 0.9 -0.16 -161.42zm207.99 147.33c-4.66,-28.66 -7.8,-26.08 -40.98,-28.75 2.11,29.78 4.26,29.72 40.98,28.75zm-1578.69 -23.11l-0.39 -163.38 -231.25 -27.09 0.15 173.05 231.49 17.42zm1523 -10.37l2.52 -46.77 -59.6 -11.87 1.33 40.32 55.75 18.31zm-91.39 -25.73l1.33 -65.82 -47.26 13.29 -1.53 37.12 47.46 15.42zm-1431.49 -138.18l-0.68 -169.04 -229.37 -33.82 -1.42 171.7 231.48 31.16zm488.99 -49.18l-0.6 -48.12 -71.43 -22.57 -0.83 48.72 72.85 21.96zm-86.92 -32.93c-8.78,-22.52 -121.27,-44.09 -121.29,-44.09 -20.05,-0.87 -15.34,1.66 -24.02,6.14 12.91,21.21 -16.45,9.55 72.89,29.27 30.05,6.63 52.93,21.3 72.42,8.67zm227.99 3.76l0.27 -106.17 -111.85 1.45 0.9 76.14 110.69 28.59zm-226.69 -33.08c-6.86,-32.38 -30.52,-40.49 -51.74,-60.37l-92.04 2.71c2.11,38.2 -18.44,18.07 62.89,39.84 27.51,7.36 52.32,14.99 80.9,17.82zm102.24 -0.6l-0.09 -46.53c-52.76,-0.4 -87.78,-7.91 -112.61,12.02 25.65,16.2 72.06,27.22 112.7,34.5zm-506.74 -72.22l0.28 -186.22c-51.9,-38.37 -163.49,-62.65 -223.35,-37.9 -19.94,40.52 -5.64,135.75 -6.72,189.34 41.66,11.26 194.81,39.14 229.79,34.77zm612.42 -79.98c-0.09,33.65 -4.41,48.01 5.93,66.88 15.22,-8.46 10.69,6.29 10.71,-28.94l0.46 -154.83 -107.46 -7.16 -2.05 155.15c0.21,39.16 -5.94,26.97 14.86,36.53 33.47,-20.96 -1.94,-112.42 14.18,-150.46 10.01,-23.66 46.45,-29.64 59.45,-6.18 7.97,14.37 3.95,69.47 3.91,89zm-442.77 -65.69c-0.53,-47.6 16.84,-31.45 -73.73,-64.5 -141.01,-51.47 -206.35,-100.52 -323.92,-70.36l-0.16 37.49c115.89,8.26 89.51,-14.02 205.18,30.2 43.52,16.64 152.19,62.83 192.62,67.17zm-380.41 -268.2c-25.69,-16.82 -90.09,-34.93 -124.51,-48.24 -49.29,-19.07 -102.11,-32.23 -148.11,-4.27l-5.72 166.31 146.99 46.28 0.81 -184.69c44.63,-3.07 89.12,44.8 130.55,24.61zm-248.65 -74.77c62.85,3.25 54.84,-20.03 56.76,-23.88 -1.97,-0.87 -4.49,-2.1 -6,-2.44l-38.09 -0.59c-32.9,4.97 -24.75,-0.53 -39.8,18.21 15.62,9.8 -14.72,6.54 27.13,8.7zm70.94 -28.97c0.17,32.75 4.63,25.22 40.89,37.36 52.63,17.61 132.63,53.68 179.99,62.44 -15.24,18.05 1.74,3.17 -16.12,12.69 -37.42,19.92 -34.3,-5.53 -43.95,23.77 -1.76,5.35 -1.05,69.27 -1.36,80.95 66.8,7.24 67.94,-20.96 141.43,8.09 40.83,16.14 82.1,34.72 123.95,44.43l0.87 -116.4 -425.69 -153.34zm193.1 4.53c-38.76,-17.67 -157.29,-77.31 -192.99,-82.16l-1.6 60.98 194.72 68.48 -0.13 -47.3z"/>
  </g>
 </g>
</svg>
