<?xml version="1.0" encoding="UTF-8"?>
<svg id="Layer_1" xmlns="http://www.w3.org/2000/svg" version="1.1" viewBox="0 0 1809 1681">
  <!-- Generator: Adobe Illustrator 29.1.0, SVG Export Plug-In . SVG Version: 2.1.0 Build 142)  -->
  <defs>
    <style>
      .st0 {
        fill: #fff;
      }
    </style>
  </defs>
  <path class="st0" d="M1132.6,42.6H236.9c-110.5,0-200,89.5-200,200v841.5c0,69.7,36.3,134.4,95.8,170.7l588.8,359.2c31.4,19.1,67.4,29.3,104.2,29.3h734.3c110.5,0,200-89.5,200-200v-865.1c0-61.4-28.2-119.4-76.5-157.3l-427.4-335.7c-35.2-27.7-78.7-42.7-123.5-42.7ZM928.1,774.2h-302c-78.1,0-141.4,63.3-141.4,141.4h0c0,78.1-63.3,141.4-141.4,141.4h-17.1c-78.1,0-141.4-63.3-141.4-141.4V331.9c0-78.1,63.3-141.4,141.4-141.4h602c78.1,0,141.4,63.3,141.4,141.4v301c0,78.1-63.3,141.4-141.4,141.4Z"/>
</svg>